<svg width="200" height="49" viewBox="0 0 200 49" fill="none" xmlns="http://www.w3.org/2000/svg">
<path d="M48.0868 24.4818C48.0868 16.0649 43.6821 8.26732 36.4863 3.91498C25.1214 -2.95805 10.3461 0.687799 3.47309 12.044C-3.39994 23.4002 0.245903 38.1842 11.6021 45.0572C22.967 51.9303 37.7423 48.2844 44.6153 36.9282C43.0977 38.0883 41.3707 38.725 39.7397 38.725C39.3036 38.725 38.8762 38.6814 38.4488 38.5854C35.7449 37.9923 33.8784 36.3526 33.2068 33.954C32.4218 31.1978 33.3551 27.9357 35.5792 25.6418C35.6228 25.5982 39.26 21.9785 40.7602 20.5394C42.4959 18.856 43.1326 17.757 43.1675 17.2686C42.4261 17.3209 39.5042 18.9258 36.3555 21.211C32.4044 24.0805 28.2788 27.77 24.4411 31.913C23.6561 32.7678 23.4293 32.9858 23.124 32.9858C22.749 32.9858 22.2344 32.4712 22.2344 32.0962C22.2344 31.8258 22.4001 31.4595 23.2113 30.5524C24.3975 29.1917 24.3975 29.1917 30.0232 23.4002C31.8985 21.4988 33.8435 19.0304 34.3407 18.0884C34.5239 17.7134 34.5762 17.5564 34.5762 17.3819C34.5762 17.3558 34.5675 17.3296 34.5587 17.3034C34.079 17.3209 32.2735 18.3414 29.9273 20.2602C27.5025 22.2402 26.3251 23.3304 24.7551 25.1359C24.6679 25.2493 24.4149 25.5546 24.1009 25.5546C23.7259 25.5197 23.4293 25.2144 23.4031 24.8306C23.4031 24.6388 23.4031 24.0718 26.4995 21.1761C29.7092 18.1931 32.8754 16.2742 34.5762 16.2742C35.3088 16.2742 35.8147 16.8237 35.8147 17.6087C35.8147 18.6467 35.1955 19.8067 33.5208 21.8302C34.9948 20.6266 36.5212 19.5014 38.1086 18.4548C40.2892 17.0069 42.0947 16.2132 43.1936 16.2132C44.031 16.2045 44.7287 16.8586 44.7549 17.6959C44.7549 18.5594 44.3275 19.388 43.1588 20.7574C42.6441 21.3505 41.4231 22.5891 39.417 24.5515L37.6289 26.3134L37.1492 26.7844C35.178 28.6858 34.2971 31.3199 34.9163 33.483C35.4048 35.21 36.7916 36.4049 38.8151 36.8497C39.1117 36.9108 39.417 36.9457 39.7222 36.9457C41.0218 36.9457 42.4261 36.3962 43.6821 35.3844C46.2726 33.2911 47.8425 29.715 48.0344 25.4674C48.0693 25.1185 48.0868 24.8045 48.0868 24.4818ZM21.0046 23.1909C19.7747 23.5398 18.4839 23.8538 17.4285 24.0718C17.8123 24.159 18.196 24.2811 18.5624 24.4381C19.9928 25.0574 20.7167 26.0081 20.7167 27.2554C20.7167 28.5899 19.9666 29.811 18.4141 30.971C16.1638 32.6544 13.5035 33.6225 11.0613 33.6225C8.61914 33.6225 7.16255 32.4712 7.16255 30.5349V30.3779C6.65666 30.9885 6.01995 31.756 5.85423 31.9653C5.37451 32.6369 4.9733 32.9509 4.60697 32.9509C4.16214 32.9509 3.69114 32.5236 3.69114 32.1311C3.69114 31.8083 3.90047 31.4246 4.49358 30.7006C6.0374 28.8079 7.37188 27.2641 8.56681 25.9732C9.02908 25.5022 9.46519 25.0051 9.88385 24.4818C9.87513 24.4643 9.85769 24.4381 9.84024 24.4033C9.75302 24.2811 9.70941 24.1416 9.70069 23.9846C9.70069 23.3304 10.5467 23.2607 10.9916 23.2607C13.1634 20.9929 14.9165 19.17 16.2161 17.8442C13.7129 18.1757 11.6719 18.699 10.4072 19.3444C10.1019 19.5276 9.75302 19.641 9.39541 19.6671C8.98547 19.641 8.65403 19.3095 8.62787 18.8996C8.62787 18.2978 9.15992 17.975 10.2763 17.5128C12.3173 16.6667 14.9601 16.126 18.135 15.9254L18.2135 15.8556C18.7543 15.3759 18.9287 15.2712 19.2776 15.2712C19.6265 15.2712 19.9056 15.6114 19.9492 15.9428C20.7167 15.9341 21.493 16.0126 22.2431 16.1696C24.3102 16.597 25.4441 17.7483 25.4441 19.4229C25.418 21.115 23.9788 22.3361 21.0046 23.1909Z" fill="black"/>
<path d="M127.763 22.8578C127.519 22.8578 127.397 22.9363 126.882 23.4247L126.69 23.5817C126.568 22.5351 126.045 22.0902 125.077 22.0902C123.515 22.0902 120.654 23.5032 118.561 25.2651C112.805 30.2105 109.804 32.1904 107.938 32.1904C107.493 32.1904 107.257 32.0335 107.257 31.7107C107.257 31.231 107.824 29.9837 108.784 28.248C109.909 26.2332 110.231 25.832 111.33 25.0296C116.921 20.8081 118.378 19.5521 121.274 16.4208C123.951 13.5338 125.164 11.6673 125.164 10.4636C125.164 9.86181 124.841 9.49548 124.283 9.49548C122.634 9.49548 118.413 12.9931 113.293 18.6275C111.487 20.5551 109.874 22.6484 108.461 24.8726L102.181 29.4866C99.7649 31.2572 97.5757 32.1817 96.5029 32.1817C96.058 32.1817 95.8225 32.0247 95.8225 31.702C95.8225 31.2223 96.3895 29.975 97.3489 28.2393C98.4741 26.2245 98.7968 25.8233 99.8958 25.0209C105.487 20.7994 106.943 19.5434 109.839 16.4121C112.525 13.5164 113.729 11.6586 113.729 10.4549C113.729 9.85309 113.406 9.48676 112.839 9.48676C111.191 9.48676 106.969 12.9843 101.85 18.6188C100.044 20.5464 98.4304 22.6397 97.0262 24.8639L90.7463 29.4779C88.3302 31.2485 86.8126 31.9898 85.4868 32.1381C84.1611 32.2864 83.0272 31.7718 83.0272 30.603C83.0272 30.1495 83.1057 29.6959 83.2714 29.2773C84.4838 28.8499 85.6525 28.3265 86.769 27.716C90.1095 25.9803 91.601 24.5324 91.601 23.0409C91.601 22.1949 91.0777 21.7501 90.0747 21.7501C88.8274 21.7501 87.1353 22.5961 84.885 24.3231C82.9923 25.8146 82.0241 26.9746 81.1868 28.9109L80.96 29.5564C79.2854 30.3501 75.6919 31.8154 71.4704 32.0247C72.9095 31.3618 74.2789 30.5507 75.5523 29.6C77.9683 27.7858 79.1371 25.9018 79.1371 23.887C79.1371 22.0379 78.0468 20.6249 75.9186 19.7004C74.8284 19.2555 74.2266 19.0985 71.8105 18.6537C73.5724 18.4095 76.7996 17.6856 79.9396 16.8046C84.6059 15.4789 86.8213 13.6298 86.8213 11.1265C86.8213 8.57966 85.0943 6.90501 81.9544 6.25957C80.5414 5.98047 79.5819 5.89324 77.8114 5.89324C77.8462 5.78858 77.855 5.68391 77.855 5.57053C77.855 5.2042 77.5322 4.80298 77.2095 4.80298C76.8083 4.80298 76.6426 4.88148 75.7617 5.64902L75.5174 5.84091C70.4063 6.16363 66.0626 7.0184 62.6785 8.41394C60.8294 9.18148 60.2624 9.61759 60.2624 10.263C60.306 10.6904 60.6375 11.0219 61.0649 11.0655C61.3876 11.0655 61.9109 10.9085 62.5127 10.5857C64.8939 9.38209 68.7927 8.45755 73.4154 7.93422C71.2 10.1845 68.0164 13.4902 63.8821 17.8338C62.5912 17.8338 62.033 18.0781 62.033 18.5578C62.033 18.7235 62.0941 18.8718 62.19 19.0026C62.2685 19.1247 62.3209 19.2643 62.347 19.4038C62.347 19.5608 61.7016 20.3284 60.0531 22.099C57.8813 24.4365 55.5874 27.1316 53.4156 29.7831C52.5695 30.8298 52.2119 31.4316 52.2119 31.8328C52.2119 32.2341 52.7789 32.7225 53.2586 32.7225C53.6598 32.7225 54.2267 32.2777 54.9507 31.2746C55.6746 30.385 57.5237 28.1434 58.0819 27.5328C57.9423 28.0823 57.8726 28.658 57.89 29.2249C57.89 32.1207 60.1054 33.8128 63.8036 33.8128C65.8359 33.7866 67.842 33.4203 69.7521 32.7225C70.005 32.7225 70.258 32.7399 70.5109 32.7399C74.9679 32.7399 78.8318 31.3008 80.8379 30.3937C80.8379 30.4896 80.8292 30.5769 80.8292 30.6815C80.8292 32.173 81.7101 32.9318 83.4022 32.9318C86.769 32.9318 88.7925 31.8416 92.2116 29.2685C93.5025 28.344 94.8282 27.3758 96.1191 26.4077C95.0724 28.4225 94.5578 29.9925 94.5578 31.1961C94.5578 32.2864 95.1248 32.8446 96.1627 32.8446C97.881 32.8446 100.227 31.8416 103.646 29.2598C104.937 28.3353 106.263 27.3671 107.554 26.399C106.507 28.4138 105.993 29.9838 105.993 31.1874C105.993 32.2777 106.559 32.8359 107.597 32.8359C109.49 32.8359 111.339 31.8677 113.956 29.8965C114.723 29.2947 114.837 29.2075 115.604 28.6493C115.308 29.2947 115.151 29.9837 115.125 30.6902C115.125 31.7369 115.814 32.4172 116.817 32.4172C117.994 32.4172 118.422 32.1381 122.128 28.9982C121.204 30.5594 121.038 30.9694 121.038 31.6497C121.038 32.33 121.605 32.8272 122.364 32.8272C123.454 32.8272 123.69 32.7487 123.69 32.4259C123.69 32.1817 123.611 32.1032 123.289 32.1032C122.722 32.1032 122.399 31.9811 122.399 31.6584C122.399 31.3793 122.678 30.8909 123.323 30.0971C124.248 28.972 125.05 27.9602 125.774 27.0793C126.341 26.4338 126.341 26.4338 126.821 25.832C128.426 23.8608 128.426 23.8608 128.426 23.3811C128.408 23.0584 128.129 22.8578 127.763 22.8578ZM117.706 16.4993C122.05 11.6324 123.62 10.0973 124.187 10.0973C124.353 10.1148 124.475 10.2543 124.466 10.42C124.466 12.5569 118.875 18.4705 111.592 23.9829C112.752 22.2123 114.209 20.4766 117.706 16.4993ZM106.272 16.4993H106.28C110.624 11.6324 112.194 10.0973 112.761 10.0973C112.927 10.1148 113.049 10.2543 113.04 10.42C113.04 12.5569 107.449 18.4705 100.166 23.9829C101.326 22.2123 102.774 20.4766 106.272 16.4993ZM89.5775 22.4914C89.813 22.5002 89.9962 22.7008 89.9874 22.9363V22.9712C89.9874 24.1748 86.8911 26.8351 83.5505 28.4835C84.5448 25.989 88.086 22.4914 89.5775 22.4914ZM69.8132 14.4845C72.3077 11.7894 74.401 9.57398 76.0495 7.7685C77.227 7.69 77.2967 7.69 77.8986 7.69C83.3325 7.69 85.7834 8.49244 85.7834 10.3066C85.7834 13.3681 78.4219 16.2639 66.7517 17.7902C68.0077 16.4121 68.1647 16.2551 69.8132 14.4845ZM63.2541 31.8677C60.4718 31.8677 58.7012 30.7775 58.7012 29.0941C58.7012 27.6811 59.5821 25.9977 61.719 23.3811C62.8529 21.9856 64.074 20.6685 65.3823 19.4387C66.0539 19.2991 66.743 19.2294 67.432 19.2468C70.4499 19.2468 72.988 19.6916 75.2383 20.5726C76.8519 21.1744 77.6543 22.099 77.6543 23.2241C77.6631 27.0793 69.6562 31.8677 63.2541 31.8677ZM122.216 28.0823C119.721 30.2978 118.029 31.5014 117.392 31.5014C117.131 31.5101 116.913 31.3008 116.904 31.0391V30.9781C116.904 30.0099 118.195 28.4312 121.535 25.4657C123.707 23.4945 124.597 22.8927 125.277 22.8927C125.678 22.8927 125.879 23.1369 125.879 23.5381C125.87 24.419 124.71 25.832 122.216 28.0823ZM177.706 17.9821C179.075 17.9821 180.479 17.014 180.479 16.0894C180.479 15.444 180.078 14.9991 179.476 14.9991C178.151 14.9991 176.781 16.0458 176.781 17.014C176.781 17.6245 177.148 17.9821 177.706 17.9821ZM187.937 17.9821H188.05C188.609 17.9559 189.158 17.7989 189.664 17.5373C190.466 17.1361 190.841 16.6912 190.841 16.0894C190.841 15.444 190.44 14.9991 189.838 14.9991C188.513 14.9991 187.143 16.0458 187.143 17.0488C187.1 17.5373 187.457 17.9559 187.937 17.9821Z" fill="black"/>
<path d="M199.354 22.8577C199.11 22.8577 198.988 22.9362 198.465 23.4246L198.273 23.5816C198.151 22.535 197.627 22.0901 196.668 22.0901C195.107 22.0901 192.22 23.477 190.152 25.265C189.917 25.4569 189.699 25.6662 189.498 25.8494C186.044 28.5183 181.962 30.4895 179.032 31.5624L180.331 30.0011C181.055 29.1202 181.823 28.2392 182.547 27.306C183.349 26.3378 184.195 25.3348 185.041 24.2881C185.887 23.2851 186.166 22.7617 186.166 22.1948C186.166 21.6715 185.8 21.4273 185.076 21.4273C184.631 21.4273 183.899 21.9506 182.46 23.3985C175.9 29.2684 171.635 32.1293 170.109 32.1293C169.324 32.1293 169.062 32.0508 169.062 31.606C169.062 31.1263 169.664 30.2802 172.159 27.3409C175.255 23.7212 175.377 23.5555 175.377 22.9536C175.377 22.4914 175.002 22.1076 174.531 22.1076C173.807 22.1076 173.284 22.3518 172.717 22.9885C172.115 23.7124 169.978 25.4394 164.832 29.4691C162.582 31.2396 160.523 32.1206 159.677 32.1206C159.11 32.1206 158.796 31.9985 158.796 31.6757C158.796 31.3966 159.076 30.9082 159.721 30.1145C160.645 28.9893 161.448 27.9776 162.172 27.0966C162.739 26.4512 162.739 26.4512 163.219 25.8494C164.832 23.8782 164.832 23.8782 164.832 23.3985C164.832 23.0321 164.553 22.8315 164.187 22.8315C163.942 22.8315 163.82 22.91 163.297 23.3985L163.105 23.5555C162.983 22.5088 162.46 22.064 161.5 22.064C159.939 22.064 157.078 23.477 154.985 25.2388C149.228 30.1843 146.271 32.1642 144.117 32.1642C143.594 32.1642 143.236 31.8851 143.236 31.5624C143.236 30.7948 145.373 28.5445 155.028 19.1246C158.491 15.7492 160.34 13.8564 161.108 12.9668C162.922 10.8299 163.602 9.54772 163.602 8.25684C163.602 7.16658 162.634 6.28564 161.509 6.28564C159.817 6.28564 156.921 7.57652 153.458 9.87044C150.72 11.6323 148.19 13.5686 143.96 16.9964C142.835 17.921 142.634 18.0867 141.71 18.8106C142.913 17.6331 143.559 16.9179 145.085 15.0688C147.946 11.6061 148.993 9.71344 148.993 8.10857C148.993 7.06191 148.347 6.38159 147.431 6.38159C144.78 6.38159 139.669 9.51283 134.558 14.2664C131.496 17.1272 129.647 19.2118 129.647 19.9009C129.647 20.2236 130.013 20.6248 130.336 20.6248C130.528 20.6248 130.816 20.4329 131.06 20.1015C133.607 17.2057 135.447 15.4352 139.547 12.0946C143.044 9.23372 146.306 7.18402 147.431 7.18402C147.676 7.18402 147.876 7.42824 147.876 7.75096C147.876 8.15218 147.754 8.4749 147.431 9.12034C146.551 10.8124 143.245 14.9118 140.305 17.8948C131.112 27.3583 131.112 27.3583 129.176 29.5737C128.086 30.7774 127.685 31.4228 127.685 31.7891C127.685 32.1555 128.33 32.7922 128.688 32.7922C128.967 32.7922 129.289 32.5131 130.502 31.1786C136.817 24.3753 143.498 18.3832 150.022 13.6733C155.011 10.0536 160.122 7.15786 161.448 7.15786C161.657 7.14913 161.832 7.31485 161.84 7.52419V7.5678C161.84 8.69295 160.349 10.7863 157.776 13.2808C153.99 16.9005 150.894 19.9619 146.83 24.1486C141.518 29.6261 140.995 30.2628 140.995 31.5885C140.995 32.5131 141.797 33.237 142.844 33.237C145.94 33.237 148.243 31.449 150.327 29.94C151.112 29.3644 151.208 29.251 151.976 28.6928C151.679 29.3382 151.513 30.0447 151.505 30.7599C151.505 31.8066 152.194 32.4869 153.197 32.4869C154.374 32.4869 154.81 32.2078 158.509 29.0678C157.584 30.6291 157.418 31.039 157.418 31.7194C157.418 32.3997 157.985 32.8968 158.744 32.8968C160.994 32.8968 163.271 31.5972 166.271 29.2336C168.391 27.5589 170.092 26.1721 172.028 24.5672C168.731 28.5096 167.684 30.1581 167.684 31.4926C167.684 32.295 168.373 32.862 169.298 32.862C172.455 32.862 176.162 29.8267 183.218 23.7299C181.047 26.425 178.674 29.3644 176.057 32.5044C173.511 33.2283 171.592 34.2313 169.664 35.967C167.292 38.104 165.478 41.1567 165.478 43.0494C165.478 43.7297 165.879 44.2269 166.446 44.2269C167.292 44.2269 168.208 43.503 170.432 41.1654C176.023 35.2518 176.023 35.2518 177.959 32.9143L178.168 32.6701C181.456 31.5536 184.596 30.0447 187.518 28.1695C187.388 28.3526 187.274 28.5445 187.169 28.7451C186.873 29.3818 186.707 30.0709 186.681 30.7774C186.681 31.824 187.37 32.5044 188.373 32.5044C189.551 32.5044 189.978 32.2252 193.685 29.0853C192.76 30.6465 192.595 31.0565 192.595 31.7368C192.595 32.4171 193.162 32.9143 193.92 32.9143C195.011 32.9143 195.246 32.8358 195.246 32.5131C195.246 32.2689 195.168 32.1904 194.845 32.1904C194.278 32.1904 193.964 32.0682 193.964 31.7455C193.964 31.4664 194.243 30.978 194.889 30.1843C195.813 29.0591 196.616 28.0473 197.339 27.1664C197.906 26.521 197.906 26.521 198.386 25.9191C200 23.9305 200 23.9305 200 23.4508C200 23.0583 199.721 22.8577 199.354 22.8577ZM158.631 28.0822C156.136 30.2977 154.444 31.5013 153.799 31.5013C153.537 31.51 153.319 31.3007 153.31 31.039V30.978C153.31 30.0098 154.601 28.4311 157.942 25.4656C160.113 23.4944 161.003 22.8926 161.683 22.8926C162.085 22.8926 162.285 23.1368 162.285 23.538C162.294 24.4189 161.125 25.8319 158.631 28.0822ZM171.025 38.5052C167.44 42.6482 167.039 43.093 166.559 43.093C166.367 43.093 166.236 42.9011 166.236 42.6133C166.236 41.366 167.606 38.9151 169.211 37.223C170.972 35.4088 173.275 33.9609 175.447 33.3591C174.81 34.1179 174.81 34.1179 171.025 38.5052ZM193.798 28.0822C191.304 30.2977 189.612 31.5013 188.975 31.5013C188.713 31.51 188.495 31.3007 188.487 31.039V30.978C188.487 30.0098 189.777 28.4311 193.118 25.4656C195.29 23.4944 196.179 22.8926 196.86 22.8926C197.261 22.8926 197.462 23.1368 197.462 23.538C197.462 24.4189 196.302 25.8319 193.798 28.0822Z" fill="black"/>
</svg>
