<svg width="200" height="29" viewBox="0 0 200 29" fill="none" xmlns="http://www.w3.org/2000/svg">
<path d="M59.8272 15.6958H54.1291C53.9353 13.4466 52.5324 12.0556 50.4371 12.0556C47.7819 12.0556 46.1852 14.3848 46.1852 18.1375C46.1852 21.8902 47.7819 24.2164 50.4371 24.2164C52.5447 24.2164 53.9476 22.6775 54.1047 20.2002H59.8396C59.4091 25.0421 55.8214 28.271 50.4742 28.271C44.428 28.271 40.487 24.2904 40.487 18.1375C40.487 11.9845 44.4161 8.00389 50.4619 8.00389C55.8091 8.00389 59.3843 11.2299 59.8272 15.6958ZM67.0482 11.0967C68.4759 9.12558 70.433 8.15486 72.5464 8.15486C76.9926 8.15486 79.8412 10.78 79.8412 15.9592V27.6702H74.3802V16.486C74.3802 13.5945 73.0511 12.2834 70.9068 12.2834C68.6454 12.2834 67.0054 13.9704 67.0054 17.4597V27.6702H61.5377V0.94833H66.9992L66.9654 11.0967H67.0482ZM95.2895 21.8843H100.871C100.089 25.3737 96.6557 28.265 91.3885 28.265C85.146 28.265 81.5183 24.0596 81.5183 17.9806C81.5183 12.3574 85.146 7.99799 91.3637 7.99799C95.9266 7.99799 99.2833 10.4751 100.529 14.3403C100.96 15.6544 101.145 17.1164 101.145 19.2207H86.9023C87.0594 23.1598 89.0565 24.5478 91.3885 24.5478C93.5728 24.5478 95.0157 23.4292 95.2895 21.8843ZM87.0194 15.9148H95.6895C95.339 13.0263 93.5361 11.7123 91.3608 11.7123C89.1856 11.7123 87.447 13.0322 87.0194 15.9207V15.9148ZM119.343 14.4528H114.113C114.113 12.5024 112.941 11.6768 110.99 11.6768C109.236 11.6768 108.298 12.3515 108.298 13.4525C108.298 14.802 109.547 15.1394 112.55 15.8911C116.101 16.779 120.002 17.6669 120.002 22.3075C120.002 25.8737 116.648 28.277 111.264 28.277C105.763 28.277 102.369 26.0987 102.369 21.4699H107.907C107.907 23.3847 109.116 24.4739 111.381 24.4739C113.292 24.4739 114.267 23.7606 114.267 22.633C114.267 20.9815 112.784 20.6441 109.704 19.8569C106.387 19.0313 102.837 18.2824 102.837 13.852C102.837 10.4367 106.114 7.99799 111.03 7.99799C116.221 8.00393 119.343 10.2177 119.343 14.4587V14.4528ZM132.807 23.5357V27.5518C131.866 27.7987 130.894 27.9242 129.918 27.9247C125.355 27.9247 123.365 26.149 123.365 21.7334V12.5084H120.165V8.60471H123.38V3.65041H128.826V8.60471H132.61V12.5084H128.826V20.7951C128.826 22.8964 129.531 23.7222 131.401 23.7222C131.876 23.728 132.35 23.6672 132.807 23.5415V23.5357ZM147.594 8.52183V13.0648C147.029 12.9505 146.454 12.8871 145.877 12.8754C142.52 12.8754 140.727 14.9027 140.727 18.6553V27.6643H135.266V8.60471H140.302V11.3068H140.382C141.708 9.23511 143.459 8.30282 145.803 8.30282C146.408 8.30525 147.009 8.3808 147.594 8.52777V8.52183ZM165.932 15.5419V22.4465C165.932 24.8498 166.125 26.3888 166.476 27.6643H161.553C161.36 26.826 161.268 25.9688 161.282 25.1102H161.224C159.744 27.1375 157.532 28.1142 154.788 28.1142C150.572 28.1142 148.037 25.6369 148.037 22.3342C148.037 19.2207 149.988 17.1164 155.729 16.2551C157.212 16.0302 159.421 15.8053 160.686 15.7284V15.0536C160.686 12.6504 159.36 11.6768 157.446 11.6768C155.418 11.6768 154.249 12.7629 154.169 14.5653H148.84C149.037 10.925 151.766 7.99799 157.424 7.99799C163.082 7.99799 165.932 10.5551 165.932 15.5478V15.5419ZM160.664 18.9247C159.492 18.9987 157.855 19.1495 156.683 19.336C154.421 19.712 153.486 20.4252 153.486 21.9642C153.486 23.3906 154.498 24.3673 156.412 24.3673C157.541 24.3673 158.751 24.03 159.532 23.2783C160.455 22.3904 160.664 21.3634 160.664 19.638V18.9247ZM179.254 23.5415V27.5577C178.312 27.8045 177.342 27.9298 176.368 27.9307C171.802 27.9307 169.811 26.1549 169.811 21.7391V12.5084H166.614V8.60471H169.811V3.65041H175.275V8.60471H179.068V12.5084H175.285V20.7951C175.285 22.8964 175.986 23.7222 177.86 23.7222C178.332 23.7271 178.8 23.6663 179.254 23.5415ZM194.146 21.8843H199.723C198.944 25.3737 195.511 28.265 190.244 28.265C184.002 28.265 180.37 24.0596 180.37 17.9806C180.37 12.3574 184.002 7.99799 190.216 7.99799C194.782 7.99799 198.135 10.4751 199.384 14.3403C199.816 15.6544 200 17.1164 200 19.2207H185.749C185.905 23.1598 187.902 24.5478 190.237 24.5478C192.423 24.5478 193.865 23.4292 194.146 21.8843ZM185.872 15.9148H194.535C194.184 13.0263 192.382 11.7123 190.204 11.7123C188.025 11.7123 186.296 13.0322 185.865 15.9207L185.872 15.9148ZM38.9086 8.30282C36.5672 8.30282 34.8135 9.241 33.4874 11.3068H33.4074V8.60471H28.3739V13.4673C27.7202 13.8519 27.0361 14.1864 26.3279 14.4676C26.9432 9.0575 25.9463 4.51163 21.5744 2.12031C14.3717 -1.82182 5.25229 1.46624 1.57559 9.98682C-1.30423 16.6665 -0.944251 26.587 8.71975 28.2503C16.63 29.6088 22.1958 25.341 24.2204 20.7803C25.6484 20.4478 27.0388 19.9799 28.3709 19.3834V27.6702H33.8474V18.6613C33.8325 17.7989 33.9507 16.9392 34.1981 16.1102C34.2777 15.8457 34.3807 15.5883 34.5058 15.3407C35.3058 13.7277 36.8226 12.8813 38.9886 12.8813C39.5647 12.8928 40.1384 12.9562 40.7023 13.0707V8.52777C40.1167 8.38014 39.514 8.30455 38.9086 8.30282ZM11.5873 23.6008C7.87979 23.6186 5.85225 21.0851 5.85225 17.0335C5.89328 15.5979 6.12701 14.1734 6.54759 12.7954C7.28602 14.8227 9.21204 17.6196 11.7042 19.1911C13.3964 20.2565 15.304 21.0348 17.1654 21.2066C15.7901 22.5177 14.0579 23.592 11.5873 23.6008ZM20.0914 16.1072C19.6077 16.1441 19.1216 16.1381 18.6391 16.0894C13.5133 15.6869 11.415 11.8691 11.3657 9.28245C11.3288 7.24331 12.7534 5.43502 14.9163 5.43502H14.9409C18.6484 5.43502 20.7405 7.8382 20.716 11.9668C20.726 13.3693 20.5154 14.7652 20.0914 16.1072Z" fill="#808285"/>
</svg>
