<svg width="200" height="43" viewBox="0 0 200 43" fill="none" xmlns="http://www.w3.org/2000/svg">
<path fill-rule="evenodd" clip-rule="evenodd" d="M0 21.5705C0 29.6184 4.98927 37.3409 11.5404 40.6816C13.5795 41.7011 16.6164 42.9593 19.5883 42.9593V26.8418C18.7206 27.0587 17.7228 28.4036 17.0937 29.0544C15.7271 30.421 15.5101 31.1802 13.7747 31.1802C12.7335 31.1802 11.9743 30.2909 11.9743 29.011C11.9743 27.3624 15.4451 25.063 16.3127 23.7397C12.343 23.7397 8.89392 24.6508 8.89392 21.3969C8.89392 20.7679 9.241 20.2039 9.60977 19.9435C10.4341 19.3362 14.8594 19.5748 16.3127 19.5748C16.1392 18.9023 14.5774 17.5574 14.0133 16.9934C13.3192 16.3209 11.9743 15.323 11.9743 14.13C11.9743 12.6115 12.7986 11.9607 14.1435 11.9607C15.38 11.9607 17.0286 14.0432 18.1783 15.1712C18.6338 15.6484 18.9158 16.1257 19.5883 16.3209C19.5883 13.7829 18.8725 10.8761 21.7576 10.8761C22.7771 10.8761 23.493 11.657 23.6882 12.5681C23.8834 13.4358 23.7533 15.3447 23.7533 16.3209C25.4887 15.1495 27.0288 11.9607 29.3716 11.9607C30.8033 11.9607 31.1938 13.1321 31.1938 14.3252C31.1938 15.3447 29.7621 16.386 29.1547 16.9934L27.9616 18.1648C27.5061 18.6203 27.0071 18.9023 26.8336 19.5748C28.005 19.5748 32.799 19.2928 33.6017 19.9002C35.0117 20.9631 34.7731 23.6963 31.9096 23.7614C30.2393 23.7831 28.5256 23.7397 26.8336 23.7397C28.5907 26.3645 31.1938 26.7333 31.1938 29.5533C31.1938 31.1369 29.7621 31.1802 28.8293 31.1802C27.4193 31.1802 25.4453 27.9698 23.7533 26.8418V42.9593C26.7035 42.9593 29.4367 41.7445 31.4975 40.7249C38.1137 37.4494 43.1464 29.8787 43.1464 22.4816C43.1464 16.8415 41.6713 11.4835 37.9402 7.55713C36.4217 5.97358 35.9445 5.30111 33.7535 3.78264C19.6751 -6.00067 0 4.43341 0 21.5705ZM152.129 26.1042V20.3123C152.129 17.7743 158.659 17.7743 158.659 20.3123V26.1042C158.659 26.7984 158.355 27.1021 157.921 27.3841C156.468 28.3168 152.129 28.3385 152.129 26.1042ZM158.659 15.9521C156.945 15.822 157.618 15.5834 154.667 15.5834C152.173 15.5834 149.049 16.9934 149.049 19.4012V27.0153C149.049 28.4687 149.982 29.2279 150.936 29.8353C152.802 31.0718 156.164 31.0501 158.312 30.4644C159.874 30.0305 157.791 30.8115 160.828 30.8115C161.24 30.8115 161.739 30.3342 161.739 29.9221V9.59623C161.739 8.48991 159.158 8.16452 158.724 9.683C158.55 10.3121 158.659 11.1147 158.659 11.7872V15.9521ZM97.0088 26.1042V20.3123C97.0088 19.5965 97.2908 19.2928 97.7247 19.0325C98.9828 18.2298 101.564 18.2298 102.801 19.0325C103.235 19.2928 103.538 19.5965 103.538 20.3123V26.1042C103.538 28.3385 99.178 28.3168 97.7247 27.3841C97.2908 27.1021 97.0088 26.7984 97.0088 26.1042ZM103.538 15.9521C101.846 15.822 102.497 15.5834 99.5468 15.5834C97.0522 15.5834 93.9285 16.9934 93.9285 19.4012V27.0153C93.9285 28.4687 94.8612 29.2279 95.8157 29.8353C97.6813 31.0718 101.044 31.0501 103.191 30.4644C104.753 30.0305 102.671 30.8115 105.707 30.8115C106.12 30.8115 106.619 30.3342 106.619 29.9221V9.59623C106.619 8.48991 104.037 8.16452 103.603 9.683C103.43 10.3121 103.538 11.1147 103.538 11.7872V15.9521ZM111.868 26.1042V20.3123C111.868 19.5965 112.15 19.2928 112.584 19.0325C113.842 18.2298 116.424 18.2298 117.682 19.0325C118.116 19.2928 118.398 19.5965 118.398 20.3123V26.1042C118.398 28.3385 114.059 28.3168 112.584 27.3841C112.15 27.1021 111.868 26.7984 111.868 26.1042ZM108.788 9.59623V29.9221C108.788 31.0067 110.241 30.8115 110.784 30.8115C111.217 30.8115 111.326 30.5295 111.695 30.2692C113.712 31.2453 117.66 30.9416 119.461 29.8787C120.176 29.4665 121.478 28.2518 121.478 27.1888V19.4012C121.478 17.0151 118.333 15.5834 115.86 15.5834C112.909 15.5834 113.56 15.822 111.868 15.9521V11.7872C111.868 9.01053 111.912 8.70683 109.699 8.70683C109.265 8.70683 108.788 9.18407 108.788 9.59623ZM82.1278 20.3123C82.1278 17.7743 88.6572 17.7743 88.6572 20.3123V21.0282H82.1278V20.3123ZM79.0474 19.4012V27.0153C79.0474 32.3733 91.7375 31.7659 91.7375 27.1888C91.7375 24.9545 91.8677 24.846 89.7418 24.846C88.3101 24.846 89.1995 27.9264 86.4879 27.9264C81.9108 27.9264 82.1278 27.4925 82.1278 23.7397H90.8481C92.1497 23.7397 91.7375 21.2451 91.7375 19.4012C91.7375 17.0151 88.5921 15.5834 86.1192 15.5834H84.6658C82.1711 15.5834 79.0474 16.9934 79.0474 19.4012ZM67.2684 20.3123C67.2684 18.078 71.6069 18.0997 73.082 19.0325C73.9063 19.5531 73.7978 20.052 73.7978 21.0282H67.2684V20.3123ZM64.1881 19.4012V27.0153C64.1881 32.3733 76.8782 31.7659 76.8782 27.1888C76.8782 24.9545 77.0083 24.846 74.8825 24.846C73.4508 24.846 74.3401 27.9264 71.6286 27.9264C67.0298 27.9264 67.2684 27.4925 67.2684 23.7397H75.9671C77.2903 23.7397 76.8782 21.2451 76.8782 19.4012C76.8782 17.0151 73.7328 15.5834 71.2598 15.5834H69.8064C67.3118 15.5834 64.1881 16.9934 64.1881 19.4012ZM166.989 20.3123C166.989 17.7743 173.518 17.7743 173.518 20.3123V21.0282H166.989V20.3123ZM163.908 19.4012V27.0153C163.908 28.4687 164.863 29.2279 165.796 29.8353C168.854 31.8527 176.599 30.7464 176.599 27.1888C176.599 24.9545 176.729 24.846 174.603 24.846C173.627 24.846 173.648 26.0608 173.388 26.7116C172.716 28.4253 166.989 28.5988 166.989 26.1042V23.7397H175.687C177.011 23.7397 176.599 21.2451 176.599 19.4012C176.599 17.0151 173.453 15.5834 170.98 15.5834H169.527C167.032 15.5834 163.908 16.9934 163.908 19.4012ZM187.293 19.0325V20.3123C187.293 26.1476 196.903 23.4794 196.903 26.1042C196.903 28.2735 194.473 28.0999 192.738 28.0999C188.942 28.0999 191.653 24.4773 188.746 24.4773C186.989 24.4773 187.293 25.8873 187.293 27.3841C187.293 29.3364 190.352 31.0067 192.911 31.0067C194.994 31.0067 196.36 31.1152 198.226 29.9438C199.983 28.8592 199.983 27.6227 199.983 25.9307C199.983 20.6594 190.373 22.9588 190.373 20.4859C190.373 18.0563 192.369 18.3166 194.733 18.3166C195.428 18.3166 196.577 18.9457 196.794 19.5097C197.25 20.7028 196.599 21.5705 198.725 21.5705C200.243 21.5705 199.983 20.4425 199.983 19.4012C199.983 17.0584 197.12 15.4098 194.733 15.4098C192.803 15.4098 190.829 15.3013 189.18 16.386C188.421 16.8849 187.293 17.9044 187.293 19.0325ZM49.1335 19.0325V20.3123C49.1335 26.1476 58.7433 23.4794 58.7433 26.1042C58.7433 28.2735 56.3137 28.0999 54.5783 28.0999C50.7821 28.0999 53.4937 24.4773 50.5869 24.4773C48.8298 24.4773 49.1335 25.8873 49.1335 27.3841C49.1335 29.3364 52.1921 31.0067 54.7518 31.0067C56.8343 31.0067 58.2009 31.1152 60.0665 29.9438C61.8236 28.8592 61.8236 27.6227 61.8236 25.9307C61.8236 20.6594 52.2138 22.9588 52.2138 20.4859C52.2138 18.0563 54.2095 18.3166 56.574 18.3166C58.8083 18.3166 58.7866 20.5726 58.9168 20.8546C59.5025 22.0694 61.8236 21.6572 61.8236 20.6594V19.4012C61.8236 17.0584 58.9602 15.4098 56.574 15.4098C54.6434 15.4098 52.6694 15.3013 51.0207 16.386C50.2615 16.8849 49.1335 17.9044 49.1335 19.0325ZM123.842 16.4944V27.0153C123.842 29.4232 126.966 30.8115 129.461 30.8115H130.914C133.387 30.8115 136.533 29.4015 136.533 27.0153V16.4944C136.533 15.3881 134.081 15.0844 133.561 16.4294C133.365 16.9283 133.452 17.6875 133.452 18.3166V26.1042C133.257 28.447 129.114 28.2301 127.747 27.4491C126.402 26.6682 126.923 24.9111 126.923 22.308L126.858 16.5595C126.424 15.041 123.842 15.3664 123.842 16.4944ZM143.778 9.59623V29.9221C143.778 31.1369 146.858 31.4189 146.858 29.3798V10.1602C146.858 8.09944 143.778 8.38145 143.778 9.59623ZM178.768 16.4944V29.9221C178.768 31.0501 181.588 31.4623 181.848 29.5316V22.1128C181.848 19.9435 181.631 19.2928 183.302 18.6637C184.777 18.0997 186.577 19.0541 186.577 16.8632C186.577 14.8458 183.475 15.5834 182.325 15.9087C180.351 16.4511 182.694 15.5834 179.679 15.5834C179.267 15.5834 178.768 16.0823 178.768 16.4944ZM138.702 16.4944V29.9221C138.702 31.1369 141.782 31.4189 141.782 29.3798V17.0367C141.782 14.9977 138.702 15.2797 138.702 16.4944ZM138.702 9.59623C138.702 12.0258 138.55 12.1342 140.697 12.1342C142.151 12.1342 142.151 8.70683 140.697 8.70683C140.155 8.70683 138.702 8.5116 138.702 9.59623Z" fill="#808285"/>
</svg>
