<svg width="100" height="40" viewBox="0 0 100 40" fill="none" xmlns="http://www.w3.org/2000/svg">
<g clip-path="url(#clip0_159_1521)">
<path fill-rule="evenodd" clip-rule="evenodd" d="M5.03 0.986086C6.36281 0.985024 7.64146 1.51339 8.58474 2.45498C9.52802 3.39658 10.0587 4.67428 10.06 6.00709C10.059 7.15442 9.66545 8.26687 8.94468 9.15955C8.22392 10.0522 7.21937 10.6714 6.098 10.9141V13.1411H9.131V15.2731H6.098V17.8931C7.16484 18.1343 8.11803 18.731 8.80123 19.5851C9.48442 20.4393 9.85705 21.5003 9.858 22.5941C9.85747 23.2275 9.73217 23.8547 9.48925 24.4397C9.24632 25.0247 8.89053 25.5561 8.44219 26.0036C7.99386 26.4511 7.46176 26.8059 6.87629 27.0478C6.29082 27.2896 5.66345 27.4137 5.03 27.4131C4.39655 27.4137 3.76918 27.2896 3.18371 27.0478C2.59824 26.8059 2.06614 26.4511 1.61781 26.0036C1.16947 25.5561 0.813681 25.0247 0.570755 24.4397C0.327829 23.8547 0.202525 23.2275 0.202 22.5941C0.202952 21.5003 0.575583 20.4393 1.25877 19.5851C1.94197 18.731 2.89516 18.1343 3.962 17.8931V15.2731H0.929V13.1411H3.962V10.9141C2.84063 10.6714 1.83608 10.0522 1.11532 9.15955C0.394554 8.26687 0.000976969 7.15442 0 6.00709C0.00132549 4.67428 0.531983 3.39658 1.47526 2.45498C2.41854 1.51339 3.6972 0.985024 5.03 0.986086ZM17.04 17.7751C16.4065 17.7744 15.7791 17.8986 15.1936 18.1404C14.608 18.3822 14.0759 18.737 13.6275 19.1845C13.179 19.632 12.8232 20.1634 12.5801 20.7484C12.3371 21.3334 12.2117 21.9606 12.211 22.5941C12.2117 23.2276 12.3371 23.8547 12.5801 24.4398C12.8232 25.0248 13.179 25.5562 13.6275 26.0037C14.0759 26.4512 14.608 26.806 15.1936 27.0478C15.7791 27.2896 16.4065 27.4137 17.04 27.4131C17.6735 27.4137 18.3008 27.2896 18.8863 27.0478C19.4718 26.8059 20.0039 26.4511 20.4522 26.0036C20.9005 25.5561 21.2563 25.0247 21.4992 24.4397C21.7422 23.8547 21.8675 23.2275 21.868 22.5941C21.8667 21.3149 21.3573 20.0885 20.4519 19.1848C19.5465 18.2811 18.3192 17.774 17.04 17.7751ZM5.03 29.7621C5.66345 29.7614 6.29082 29.8856 6.87629 30.1274C7.46176 30.3692 7.99386 30.724 8.44219 31.1715C8.89053 31.619 9.24632 32.1505 9.48925 32.7355C9.73217 33.3205 9.85747 33.9476 9.858 34.5811C9.85747 35.2145 9.73217 35.8417 9.48925 36.4267C9.24632 37.0117 8.89053 37.5431 8.44219 37.9906C7.99386 38.4381 7.46176 38.7929 6.87629 39.0348C6.29082 39.2766 5.66345 39.4007 5.03 39.4001C4.39655 39.4007 3.76918 39.2766 3.18371 39.0348C2.59824 38.7929 2.06614 38.4381 1.61781 37.9906C1.16947 37.5431 0.813681 37.0117 0.570755 36.4267C0.327829 35.8417 0.202525 35.2145 0.202 34.5811C0.202525 33.9476 0.327829 33.3205 0.570755 32.7355C0.813681 32.1505 1.16947 31.619 1.61781 31.1715C2.06614 30.724 2.59824 30.3692 3.18371 30.1274C3.76918 29.8856 4.39655 29.7614 5.03 29.7621ZM17.04 29.7621C16.4065 29.7614 15.7791 29.8856 15.1936 30.1274C14.608 30.3692 14.0759 30.724 13.6275 31.1715C13.179 31.619 12.8232 32.1504 12.5801 32.7354C12.3371 33.3204 12.2117 33.9476 12.211 34.5811C12.2117 35.2146 12.3371 35.8417 12.5801 36.4268C12.8232 37.0118 13.179 37.5432 13.6275 37.9907C14.0759 38.4382 14.608 38.793 15.1936 39.0348C15.7791 39.2766 16.4065 39.4007 17.04 39.4001C17.6735 39.4007 18.3008 39.2766 18.8863 39.0348C19.4718 38.7929 20.0039 38.4381 20.4522 37.9906C20.9005 37.5431 21.2563 37.0117 21.4992 36.4267C21.7422 35.8417 21.8675 35.2145 21.868 34.5811C21.8667 33.3019 21.3573 32.0755 20.4519 31.1718C19.5465 30.2681 18.3192 29.761 17.04 29.7621ZM5.03 3.16809C5.40317 3.16769 5.77276 3.24082 6.11766 3.38329C6.46256 3.52576 6.77602 3.73479 7.04012 3.99843C7.30423 4.26207 7.5138 4.57515 7.65688 4.9198C7.79996 5.26445 7.87374 5.63392 7.874 6.00709C7.87374 6.38026 7.79996 6.74972 7.65688 7.09437C7.5138 7.43902 7.30423 7.75211 7.04012 8.01574C6.77602 8.27938 6.46256 8.48841 6.11766 8.63088C5.77276 8.77335 5.40317 8.84648 5.03 8.84609C4.65683 8.84648 4.28724 8.77335 3.94234 8.63088C3.59743 8.48841 3.28398 8.27938 3.01988 8.01574C2.75577 7.75211 2.5462 7.43902 2.40312 7.09437C2.26004 6.74972 2.18626 6.38026 2.186 6.00709C2.18626 5.63392 2.26004 5.26445 2.40312 4.9198C2.5462 4.57515 2.75577 4.26207 3.01988 3.99843C3.28398 3.73479 3.59743 3.52576 3.94234 3.38329C4.28724 3.24082 4.65683 3.16769 5.03 3.16809ZM40.679 39.1631H39.856C39.5739 39.1646 39.2944 39.1093 39.0342 39.0005C38.7739 38.8918 38.5382 38.7318 38.341 38.5301C38.1479 38.3325 37.993 38.101 37.884 37.8471C37.771 37.5826 37.7135 37.2977 37.715 37.0101V32.9581H31.91V37.0101C31.91 37.3091 31.853 37.5881 31.741 37.8471C31.6321 38.1017 31.476 38.3334 31.281 38.5301C31.0849 38.7251 30.8543 38.8821 30.601 38.9931C30.344 39.1051 30.066 39.1631 29.769 39.1631H28.947V24.6921H29.769C30.066 24.6921 30.344 24.7511 30.601 24.8631C30.858 24.9751 31.084 25.1281 31.281 25.3221C31.477 25.5191 31.629 25.7441 31.741 26.0021C31.853 26.2611 31.91 26.5401 31.91 26.8361V30.5301H37.715V26.8361C37.7138 26.5495 37.7713 26.2656 37.884 26.0021C37.996 25.7441 38.148 25.5191 38.341 25.3221C38.531 25.1281 38.758 24.9751 39.018 24.8631C39.278 24.7511 39.559 24.6921 39.856 24.6921H40.679V39.1631ZM52.097 37.0781C52.047 37.1507 51.9925 37.2201 51.934 37.2861C51.8616 37.3691 51.7872 37.4505 51.711 37.5301C51.633 37.6161 51.552 37.6941 51.474 37.7721L51.265 37.9661C51.1309 38.08 50.9918 38.1877 50.848 38.2891C50.6971 38.3953 50.5391 38.4908 50.375 38.5751C50.1977 38.6689 50.0143 38.7508 49.826 38.8201C49.6283 38.8904 49.4274 38.9514 49.224 39.0031C49.0037 39.0581 48.7798 39.0979 48.554 39.1221C48.3127 39.1502 48.0699 39.1639 47.827 39.1631C47.012 39.1631 46.295 39.0311 45.665 38.7651C45.3525 38.6389 45.0533 38.4818 44.772 38.2961C43.9598 37.7666 43.3442 36.9848 43.02 36.0711C42.7774 35.4383 42.6557 34.7657 42.661 34.0881V33.7101C42.661 33.3091 42.692 32.9311 42.746 32.5741C42.803 32.2141 42.891 31.8671 43.01 31.5371C43.24 30.8631 43.561 30.2921 43.97 29.8191C44.3958 29.341 44.9197 28.9604 45.506 28.7031C46.095 28.4381 46.768 28.3051 47.529 28.3051C48.287 28.3051 48.947 28.4281 49.502 28.6761C49.792 28.8091 50.057 28.9581 50.294 29.1281C50.7732 29.4842 51.169 29.9405 51.454 30.4651C51.599 30.7341 51.721 31.0301 51.819 31.3501C51.944 31.7681 52.029 32.2271 52.066 32.7271V33.2341C52.0563 33.4294 52.0066 33.6207 51.92 33.7961C51.8362 33.9654 51.7216 34.1177 51.582 34.2451C51.4414 34.3714 51.28 34.4726 51.105 34.5441C50.9255 34.6165 50.7336 34.6536 50.54 34.6531H45.476C45.503 34.8261 45.54 34.9861 45.588 35.1391C45.631 35.2921 45.689 35.4351 45.753 35.5681C45.892 35.8501 46.071 36.0881 46.291 36.2821C46.487 36.4721 46.738 36.6261 47.042 36.7381C47.313 36.8431 47.638 36.8981 48.013 36.8981C48.524 36.8981 48.991 36.8061 49.421 36.6191C49.725 36.4931 49.996 36.4051 50.229 36.3601C50.4377 36.3144 50.6521 36.3006 50.865 36.3191C51.051 36.3401 51.224 36.3881 51.372 36.4661C51.525 36.5411 51.667 36.6431 51.799 36.7691L52.097 37.0781ZM45.733 31.8631C45.6233 32.1497 45.5507 32.4491 45.517 32.7541H49.383V32.5231C49.3772 32.2591 49.3362 31.9972 49.261 31.7441C49.1847 31.5175 49.0678 31.3068 48.916 31.1221C48.7581 30.9454 48.5612 30.8077 48.341 30.7201C48.2197 30.6639 48.0911 30.6252 47.959 30.6051C47.8135 30.5815 47.6664 30.5701 47.519 30.5711C47.242 30.5631 46.9669 30.6178 46.714 30.7311C46.4918 30.837 46.2937 30.9874 46.132 31.1731C45.9596 31.3779 45.8246 31.6115 45.733 31.8631ZM59.282 31.2441L59.232 31.2341C59.14 31.2271 59.052 31.2241 58.971 31.2201C58.886 31.2171 58.802 31.2141 58.717 31.2141C58.4662 31.2111 58.2158 31.2349 57.97 31.2851C57.7604 31.3253 57.5596 31.4025 57.377 31.5131C57.2162 31.6036 57.0685 31.7157 56.938 31.8461C56.809 31.9761 56.701 32.1291 56.617 32.2991V37.8201C56.6192 38.0072 56.5841 38.193 56.5137 38.3664C56.4433 38.5398 56.339 38.6974 56.207 38.8301C56.0794 38.9598 55.928 39.0637 55.761 39.1361C55.5906 39.2078 55.4076 39.245 55.2228 39.2456C55.0379 39.2462 54.8547 39.2102 54.6838 39.1396C54.5129 39.069 54.3577 38.9653 54.2271 38.8344C54.0966 38.7036 53.9932 38.5481 53.923 38.3771C53.8514 38.2001 53.8147 38.011 53.815 37.8201V28.3771V28.3871H54.4C54.874 28.3941 55.301 28.5191 55.679 28.7611C56.061 29.0031 56.349 29.3221 56.548 29.7201C56.745 29.3221 57.033 29.0031 57.415 28.7611C57.7985 28.518 58.2429 28.3883 58.697 28.3871H59.282V31.2441ZM66.495 35.0371L69.073 26.4271C69.1598 26.1173 69.3058 25.8273 69.503 25.5731C69.698 25.3251 69.925 25.1181 70.189 24.9581C70.7267 24.6214 71.3699 24.4953 71.995 24.6041L72.838 24.7441L68.298 37.8361C68.1707 38.2206 67.9241 38.5544 67.594 38.7891C67.266 39.0241 66.894 39.1431 66.484 39.1431C66.069 39.1431 65.696 39.0241 65.365 38.7851C65.0398 38.5494 64.797 38.2174 64.671 37.8361L60.182 24.7911L60.946 24.6421C61.275 24.5841 61.599 24.5841 61.918 24.6481C62.232 24.7101 62.526 24.8251 62.794 24.9851C63.061 25.1491 63.295 25.3561 63.494 25.6081C63.69 25.8631 63.839 26.1521 63.938 26.4751L66.495 35.0371ZM82.659 37.0781C82.6093 37.1507 82.5552 37.2202 82.497 37.2861C82.424 37.3689 82.3493 37.4503 82.273 37.5301C82.195 37.6161 82.114 37.6941 82.036 37.7721L81.827 37.9661C81.6931 38.0802 81.554 38.188 81.41 38.2891C81.2593 38.3955 81.1012 38.491 80.937 38.5751C80.7599 38.6687 80.5769 38.7506 80.389 38.8201C80.199 38.8881 79.996 38.9491 79.787 39.0031C79.5667 39.058 79.3428 39.0978 79.117 39.1221C78.8754 39.1502 78.6323 39.1639 78.389 39.1631C77.574 39.1631 76.857 39.0311 76.228 38.7651C75.915 38.6391 75.6155 38.482 75.334 38.2961C74.5231 37.7652 73.9079 36.9839 73.582 36.0711C73.3398 35.4383 73.2183 34.7657 73.224 34.0881V33.7101C73.224 33.3091 73.254 32.9311 73.308 32.5741C73.3636 32.221 73.452 31.8738 73.572 31.5371C73.802 30.8631 74.123 30.2921 74.533 29.8191C74.9588 29.341 75.4827 28.9604 76.069 28.7031C76.657 28.4381 77.331 28.3051 78.092 28.3051C78.85 28.3051 79.509 28.4281 80.064 28.6761C80.355 28.8091 80.619 28.9581 80.856 29.1281C81.093 29.2991 81.309 29.4961 81.502 29.7241C81.698 29.9481 81.871 30.1971 82.016 30.4651C82.162 30.7341 82.283 31.0301 82.381 31.3501C82.507 31.7681 82.591 32.2271 82.628 32.7271V33.2341C82.6186 33.4294 82.5692 33.6206 82.483 33.7961C82.3133 34.1377 82.0229 34.4042 81.668 34.5441C81.4881 34.6165 81.2959 34.6536 81.102 34.6531H76.038C76.0879 34.9695 76.1814 35.2774 76.316 35.5681C76.454 35.8501 76.634 36.0881 76.854 36.2821C77.049 36.4721 77.3 36.6261 77.605 36.7381C77.875 36.8431 78.2 36.8981 78.576 36.8981C79.086 36.8981 79.553 36.8061 79.983 36.6191C80.287 36.4931 80.558 36.4051 80.791 36.3601C81.025 36.3131 81.238 36.2991 81.427 36.3191C81.614 36.3401 81.786 36.3881 81.935 36.4661C82.087 36.5411 82.229 36.6431 82.361 36.7691L82.659 37.0781ZM76.295 31.8631C76.1872 32.1503 76.1147 32.4494 76.079 32.7541H79.945V32.5231C79.939 32.2592 79.8983 31.9973 79.824 31.7441C79.7469 31.5177 79.6297 31.307 79.478 31.1221C79.3204 30.9454 79.1239 30.8078 78.904 30.7201C78.7823 30.664 78.6534 30.6253 78.521 30.6051C78.3755 30.5814 78.2284 30.57 78.081 30.5711C77.763 30.5711 77.497 30.6251 77.276 30.7311C77.0538 30.837 76.8557 30.9874 76.694 31.1731C76.522 31.3782 76.3869 31.6117 76.295 31.8631ZM92.737 34.7781C92.943 35.1491 93.044 35.5981 93.044 36.1251C93.044 36.5951 92.939 37.0271 92.726 37.4111C92.53 37.7951 92.236 38.1361 91.847 38.4281C91.6494 38.5785 91.4361 38.7072 91.211 38.8121C90.981 38.9211 90.73 39.0201 90.46 39.1081C89.922 39.2681 89.32 39.3461 88.643 39.3461C87.885 39.3461 87.229 39.2411 86.681 39.0271C86.4154 38.9316 86.1576 38.8155 85.91 38.6801C85.6741 38.5522 85.4564 38.3931 85.263 38.2071C85.0473 37.9968 84.8545 37.7641 84.688 37.5131C84.5494 37.2976 84.4306 37.07 84.333 36.8331C84.2553 36.6416 84.1954 36.4435 84.154 36.2411C84.1243 36.0932 84.1082 35.9429 84.106 35.7921L84.117 34.5161H84.682C85.003 34.5161 85.307 34.5771 85.591 34.7001C85.876 34.8221 86.126 34.9931 86.346 35.2031C86.576 35.4551 86.739 35.7651 86.83 36.1321C86.844 36.1971 86.861 36.2651 86.88 36.3291C86.9654 36.5942 87.1372 36.8231 87.368 36.9791C87.537 37.0911 87.74 37.1831 87.97 37.2581C88.196 37.3161 88.437 37.3461 88.694 37.3461C89.235 37.3461 89.641 37.2411 89.911 37.0271C90.0401 36.939 90.1453 36.82 90.2169 36.681C90.2885 36.542 90.3242 36.3874 90.321 36.2311C90.321 36.0781 90.291 35.9411 90.23 35.8221C90.1621 35.678 90.0505 35.559 89.911 35.4821C89.8196 35.4189 89.7225 35.3644 89.621 35.3191C89.4987 35.263 89.3747 35.211 89.249 35.1631C89.0908 35.1112 88.9303 35.0669 88.768 35.0301C88.5716 34.983 88.3756 34.9343 88.18 34.8841C87.67 34.7758 87.1689 34.6291 86.681 34.4451C86.2577 34.2846 85.8583 34.0669 85.494 33.7981C85.3367 33.6678 85.1906 33.5246 85.057 33.3701C84.9272 33.2192 84.8139 33.055 84.719 32.8801C84.536 32.5501 84.442 32.1521 84.442 31.6861C84.442 31.2611 84.536 30.8421 84.719 30.4311C84.925 30.0261 85.199 29.6791 85.541 29.3941C85.9358 29.0717 86.3867 28.8249 86.871 28.6661C87.4384 28.4867 88.0309 28.3992 88.626 28.4071C89.327 28.4071 89.935 28.4891 90.46 28.6551C90.73 28.7471 90.977 28.8531 91.207 28.9681C91.434 29.0841 91.644 29.2201 91.837 29.3731C92.212 29.6661 92.504 30.0191 92.709 30.4381C92.899 30.8291 93.004 31.2581 93.014 31.7231V33.0771H92.422C92.0771 33.0822 91.7356 33.008 91.424 32.8601C91.1307 32.718 90.872 32.5136 90.666 32.2611C90.6245 32.2162 90.5894 32.1657 90.562 32.1111C90.522 32.0393 90.4879 31.9644 90.46 31.8871C90.4243 31.8036 90.3926 31.7185 90.365 31.6321C90.3362 31.5504 90.3115 31.4673 90.291 31.3831C90.2564 31.2471 90.2003 31.1175 90.125 30.9991C90.0453 30.8707 89.9393 30.7606 89.814 30.6761C89.6655 30.5648 89.4928 30.4901 89.31 30.4581C89.0806 30.4207 88.8484 30.4036 88.616 30.4071C88.146 30.4071 87.784 30.5161 87.523 30.7371C87.3967 30.8316 87.2949 30.955 87.2262 31.097C87.1574 31.239 87.1238 31.3954 87.128 31.5531C87.1289 31.7037 87.1697 31.8513 87.2463 31.981C87.3229 32.1106 87.4325 32.2177 87.564 32.2911C87.638 32.3461 87.723 32.3971 87.821 32.4411C87.923 32.4891 88.037 32.5371 88.169 32.5811C88.295 32.6211 88.433 32.6621 88.585 32.7031C88.738 32.7411 88.903 32.7781 89.079 32.8121C89.635 32.9171 90.165 33.0541 90.666 33.2201C90.91 33.3021 91.136 33.3941 91.339 33.4991C91.545 33.6081 91.735 33.7241 91.915 33.8491C92.094 33.9751 92.25 34.1181 92.385 34.2751C92.52 34.4281 92.639 34.5981 92.737 34.7781ZM98.799 37.2311C98.826 37.2381 98.9 37.2441 99.022 37.2551C99.144 37.2651 99.272 37.2721 99.408 37.2751L99.787 37.2851C99.902 37.2891 99.973 37.2891 100 37.2821V37.8191C100 38.0511 99.952 38.2651 99.861 38.4621C99.7691 38.6535 99.6446 38.8274 99.493 38.9761C99.3392 39.1223 99.1571 39.2356 98.958 39.3091C98.7528 39.3854 98.533 39.4145 98.315 39.3941C97.9672 39.3673 97.6208 39.3243 97.277 39.2651C97.1051 39.2339 96.9414 39.1679 96.796 39.0711C96.6567 38.974 96.5234 38.8685 96.397 38.7551C96.1477 38.5045 95.958 38.201 95.842 37.8671C95.7666 37.6735 95.7156 37.4713 95.69 37.2651C95.6588 37.026 95.6441 36.7851 95.646 36.5441V30.2851H94.228V29.6281C94.2303 29.2994 94.363 28.985 94.597 28.7541C94.8339 28.5195 95.1536 28.3877 95.487 28.3871H95.646V25.0801H96.218C96.4888 25.0795 96.7569 25.134 97.006 25.2401C97.253 25.3461 97.466 25.4891 97.652 25.6721C97.835 25.8561 97.98 26.0701 98.085 26.3151C98.19 26.5601 98.244 26.8221 98.244 27.1011V28.3871H99.888V29.0331C99.8884 29.1973 99.8564 29.3599 99.7939 29.5117C99.7314 29.6636 99.6395 29.8016 99.5236 29.9178C99.4077 30.0341 99.27 30.1264 99.1184 30.1894C98.9667 30.2525 98.8042 30.285 98.64 30.2851H98.244V36.2651C98.244 36.4621 98.264 36.6321 98.305 36.7721C98.329 36.8331 98.356 36.8871 98.383 36.9421C98.4086 36.9928 98.4456 37.0369 98.491 37.0711C98.5739 37.156 98.6818 37.2121 98.799 37.2311Z" fill="#808285"/>
</g>
<defs>
<clipPath id="clip0_159_1521">
<rect width="100" height="39" fill="white" transform="translate(0 0.986084)"/>
</clipPath>
</defs>
</svg>
