<svg width="48" height="48" viewBox="0 0 48 48" fill="none" xmlns="http://www.w3.org/2000/svg">
<circle cx="24" cy="24" r="24" fill="black"/>
<path d="M30.312 34.35C29.087 35.5375 27.7495 35.35 26.462 34.7875C25.0995 34.2125 23.8495 34.1875 22.412 34.7875C20.612 35.5625 19.662 35.3375 18.587 34.35C12.487 28.0625 13.387 18.4875 20.312 18.1375C21.9995 18.225 23.1745 19.0625 24.162 19.1375C25.637 18.8375 27.0495 17.975 28.6245 18.0875C30.512 18.2375 31.937 18.9875 32.8745 20.3375C28.9745 22.675 29.8995 27.8125 33.4745 29.25C32.762 31.125 31.837 32.9875 30.2995 34.3625L30.312 34.35V34.35ZM24.037 18.0625C23.8495 15.275 26.112 12.975 28.712 12.75C29.0745 15.975 25.787 18.375 24.037 18.0625Z" fill="white"/>
</svg>
