<svg width="213" height="310" viewBox="0 0 213 310" fill="none" xmlns="http://www.w3.org/2000/svg">
<path d="M-11.8984 140.954C-8.44307 139.813 -5.28332 138.683 -2.06679 137.748C0.677832 136.95 3.50406 136.434 6.25521 135.654C6.81703 135.495 7.20512 134.72 7.6733 134.229C6.9763 133.985 6.18329 133.393 5.5982 133.554C1.22057 134.761 -1.84997 131.884 -5.32086 130.241C-8.7792 128.603 -12.1922 126.834 -15.7717 125.521C-16.4603 125.268 -18.2227 126.632 -18.8099 127.646C-21.5345 132.345 -24.0494 137.168 -26.5589 141.989C-26.9558 142.751 -26.9392 143.728 -27.1138 144.607C-26.3526 144.518 -25.5704 144.512 -24.8338 144.326C-20.6067 143.258 -16.3899 142.147 -11.8984 140.954ZM-17.4389 133.134C-16.8342 133.401 -16.2297 133.667 -15.6246 133.933C-16.2403 134.263 -16.8559 134.593 -17.471 134.924C-17.5184 134.45 -17.5659 133.976 -17.4389 133.134Z" fill="#BABABA"/>
<path d="M139.315 163.572C134.456 167.32 129.912 171.029 125.246 174.58C124.229 175.354 122.707 175.431 121.562 176.083C120.914 176.452 120.562 177.338 120.076 177.991C120.728 178.095 121.47 178.452 122.017 178.258C124.174 177.492 126.496 176.881 128.343 175.61C132.293 172.893 135.988 169.803 139.781 166.859C139.99 166.697 140.122 166.437 140.331 166.278C141.11 165.683 141.906 165.11 142.696 164.529C141.659 164.178 140.623 163.826 139.315 163.572Z" fill="#BABABA"/>
<path d="M7.54917 173.2C6.14752 170.412 4.90559 167.86 3.50325 165.399C3.02357 164.558 2.00988 164.337 1.92842 165.674C1.84948 166.981 2.1 168.357 2.46319 169.629C2.90189 171.164 3.25894 172.948 4.27423 174.049C6.7357 176.715 9.52665 179.085 12.2718 181.474C12.6519 181.805 13.5236 181.571 14.1677 181.6C13.9968 180.894 14.0468 179.985 13.6173 179.518C11.7017 177.434 9.64907 175.475 7.54917 173.2Z" fill="#BABABA"/>
<path d="M34.4124 198.364C37.27 199.721 39.9365 201.003 42.6228 202.243C43.0124 202.423 43.5773 202.581 43.9204 202.43C44.6482 202.108 45.2832 201.577 45.9563 201.131C45.4408 200.738 44.9666 200.27 44.4036 199.964C39.6189 197.366 34.8357 194.762 29.9999 192.26C29.3697 191.934 28.4462 192.175 27.6586 192.153C28.0079 192.869 28.1796 193.802 28.7396 194.261C30.4902 195.695 32.3879 196.951 34.4124 198.364Z" fill="#BABABA"/>
<path d="M77.6238 203.315C78.2999 202.17 77.6007 201.113 76.4496 201.316C72.5844 201.999 68.7198 202.72 64.9065 203.639C64.0888 203.836 63.4503 204.894 62.8463 205.648C62.7944 205.713 63.6933 206.916 64.0381 206.863C67.6357 206.306 71.2248 205.668 74.7807 204.891C75.7018 204.689 76.4984 203.92 77.6238 203.315Z" fill="#BABABA"/>
<path d="M106.713 190.956C107 190.599 107.255 190.46 107.39 190.246C107.99 189.299 109.271 187.877 109.001 187.449C108.094 186.012 106.798 187.233 105.87 187.783C102.951 189.514 100.135 191.418 97.2718 193.242C97.0362 193.392 96.5736 193.37 96.4955 193.55C96.1168 194.425 95.8329 195.341 95.5149 196.243C96.4919 196.126 97.6054 196.272 98.4201 195.845C101.212 194.385 103.899 192.725 106.713 190.956Z" fill="#BABABA"/>
</svg>
