<svg width="226" height="226" viewBox="0 0 226 226" fill="none" xmlns="http://www.w3.org/2000/svg">
<path d="M163.002 108.656C160.69 107.609 158.583 106.593 156.422 105.707C154.578 104.951 152.657 104.384 150.807 103.64C150.429 103.487 150.217 102.922 149.929 102.547C150.43 102.429 151.024 102.077 151.418 102.232C154.364 103.392 156.705 101.625 159.233 100.742C161.752 99.8619 164.25 98.8876 166.828 98.2422C167.325 98.1179 168.446 99.1939 168.778 99.9399C170.32 103.4 171.707 106.93 173.09 110.458C173.309 111.016 173.225 111.692 173.281 112.314C172.76 112.196 172.218 112.134 171.721 111.951C168.869 110.898 166.028 109.816 163.002 108.656ZM167.422 103.644C166.983 103.784 166.544 103.924 166.105 104.064C166.507 104.338 166.909 104.613 167.311 104.887C167.379 104.563 167.447 104.237 167.422 103.644Z" fill="#BABABA"/>
<path d="M56.4841 113.158C59.5761 116.116 62.4529 119.024 65.425 121.831C66.0729 122.443 67.1227 122.609 67.8684 123.145C68.2901 123.449 68.4693 124.089 68.7578 124.578C68.2978 124.602 67.7568 124.794 67.3921 124.62C65.9529 123.929 64.3882 123.334 63.2018 122.316C60.6637 120.14 58.3307 117.724 55.9179 115.402C55.7855 115.275 55.7131 115.085 55.58 114.959C55.0839 114.489 54.5742 114.033 54.0695 113.572C54.8141 113.405 55.5585 113.237 56.4841 113.158Z" fill="#BABABA"/>
<path d="M147.134 129.576C148.312 127.747 149.361 126.069 150.516 124.467C150.91 123.919 151.63 123.841 151.587 124.774C151.545 125.686 151.27 126.622 150.924 127.477C150.506 128.509 150.127 129.719 149.341 130.407C147.438 132.074 145.327 133.511 143.247 134.964C142.959 135.166 142.372 134.939 141.923 134.911C142.094 134.434 142.127 133.801 142.459 133.509C143.941 132.205 145.509 130.999 147.134 129.576Z" fill="#BABABA"/>
<path d="M126.647 145.038C124.565 145.767 122.622 146.459 120.667 147.121C120.384 147.217 119.981 147.284 119.754 147.154C119.273 146.877 118.872 146.462 118.438 146.103C118.825 145.869 119.188 145.579 119.601 145.409C123.111 143.961 126.62 142.509 130.158 141.132C130.619 140.952 131.241 141.188 131.789 141.231C131.494 141.701 131.306 142.336 130.884 142.612C129.564 143.477 128.155 144.208 126.647 145.038Z" fill="#BABABA"/>
<path d="M96.3197 145.275C95.9355 144.432 96.4984 143.751 97.2815 143.976C99.9111 144.735 102.537 145.522 105.113 146.44C105.666 146.637 106.03 147.418 106.393 147.986C106.424 148.035 105.712 148.803 105.477 148.74C103.024 148.088 100.582 147.38 98.1744 146.578C97.5506 146.37 97.0552 145.778 96.3197 145.275Z" fill="#BABABA"/>
<path d="M77.0639 134.556C76.8915 134.287 76.725 134.172 76.6469 134.013C76.3016 133.312 75.5185 132.231 75.737 131.955C76.4719 131.026 77.2803 131.968 77.8833 132.418C79.7791 133.833 81.5906 135.362 83.4413 136.839C83.5935 136.96 83.9159 136.979 83.9567 137.109C84.1546 137.744 84.2837 138.4 84.4376 139.049C83.7688 138.896 82.9859 138.914 82.4526 138.559C80.6249 137.34 78.8845 135.99 77.0639 134.556Z" fill="#BABABA"/>
<path d="M160.197 116.566C158.827 117.631 158.21 117.523 158.336 116.234C158.536 114.196 159.051 112.167 159.666 110.207C159.806 109.758 160.894 109.606 161.546 109.317C161.689 109.807 162.053 110.357 161.938 110.776C161.416 112.682 160.759 114.55 160.197 116.566Z" fill="#BABABA"/>
</svg>
