<svg width="232" height="232" viewBox="0 0 232 232" fill="none" xmlns="http://www.w3.org/2000/svg">
<path d="M165.925 116.236C163.725 117.5 161.725 118.715 159.659 119.804C157.897 120.735 156.039 121.484 154.269 122.402C153.907 122.59 153.751 123.174 153.5 123.575C154.01 123.643 154.635 123.937 155.012 123.745C157.833 122.306 160.334 123.84 162.935 124.476C165.527 125.109 168.106 125.839 170.736 126.233C171.241 126.309 172.254 125.131 172.513 124.356C173.714 120.764 174.755 117.117 175.793 113.472C175.957 112.895 175.809 112.23 175.805 111.606C175.298 111.774 174.764 111.887 174.287 112.118C171.55 113.44 168.825 114.791 165.925 116.236ZM170.806 120.799C170.356 120.702 169.906 120.605 169.455 120.509C169.829 120.197 170.203 119.885 170.577 119.572C170.676 119.889 170.775 120.206 170.806 120.799Z" fill="#BABABA"/>
<path d="M59.4687 122.001C62.2617 118.759 64.8455 115.588 67.5339 112.508C68.1199 111.837 69.1488 111.571 69.8395 110.965C70.2299 110.622 70.3468 109.967 70.5869 109.453C70.1267 109.474 69.5698 109.334 69.2236 109.543C67.8575 110.369 66.3573 111.112 65.2743 112.239C62.9573 114.649 60.8674 117.278 58.6892 119.821C58.5696 119.961 58.5159 120.157 58.3954 120.295C57.947 120.811 57.4834 121.314 57.0255 121.821C57.7826 121.916 58.5397 122.011 59.4687 122.001Z" fill="#BABABA"/>
<path d="M148.119 96.9392C149.467 98.6466 150.673 100.216 151.977 101.7C152.422 102.207 153.145 102.215 153.013 101.291C152.884 100.387 152.52 99.4822 152.093 98.6643C151.578 97.6774 151.084 96.509 150.236 95.8997C148.181 94.4237 145.942 93.1967 143.732 91.9498C143.426 91.777 142.863 92.0591 142.42 92.1302C142.635 92.5882 142.729 93.2158 143.087 93.4745C144.688 94.6297 146.365 95.6794 148.119 96.9392Z" fill="#BABABA"/>
<path d="M126.239 83.52C124.097 82.9942 122.096 82.4921 120.087 82.0219C119.796 81.9537 119.388 81.9253 119.174 82.0767C118.722 82.3982 118.363 82.8505 117.966 83.2491C118.373 83.4453 118.763 83.6987 119.19 83.8285C122.823 84.9322 126.455 86.0395 130.109 87.0702C130.586 87.2044 131.183 86.9103 131.724 86.8146C131.385 86.3746 131.136 85.7615 130.69 85.5267C129.293 84.7925 127.82 84.2009 126.239 83.52Z" fill="#BABABA"/>
<path d="M96.0302 86.2006C95.7289 87.0774 96.3548 87.7011 97.1125 87.4009C99.6569 86.3926 102.195 85.3573 104.671 84.1952C105.202 83.9459 105.49 83.1338 105.796 82.5335C105.823 82.4821 105.04 81.7862 104.812 81.871C102.433 82.756 100.071 83.6954 97.751 84.7253C97.1501 84.9923 96.7139 85.6294 96.0302 86.2006Z" fill="#BABABA"/>
<path d="M77.8948 98.7228C77.7491 99.0072 77.5943 99.1375 77.5318 99.3026C77.2557 100.034 76.5802 101.185 76.8242 101.439C77.6451 102.293 78.3591 101.278 78.916 100.772C80.6668 99.1804 82.3229 97.4845 84.023 95.837C84.1629 95.7017 84.4819 95.6514 84.51 95.5178C84.6459 94.867 84.7113 94.2014 84.802 93.541C84.1511 93.7576 83.3701 93.8145 82.8734 94.2199C81.1715 95.609 79.569 97.1202 77.8948 98.7228Z" fill="#BABABA"/>
<path d="M162.373 108.633C160.907 107.704 160.302 107.871 160.552 109.142C160.947 111.151 161.655 113.121 162.455 115.013C162.639 115.446 163.736 115.493 164.413 115.718C164.508 115.217 164.817 114.634 164.662 114.228C163.959 112.382 163.125 110.585 162.373 108.633Z" fill="#BABABA"/>
</svg>
