<svg width="77" height="37" viewBox="0 0 77 37" fill="none" xmlns="http://www.w3.org/2000/svg">
<path d="M6.25346 4.73003C9.47646 8.61879 12.7154 12.3268 15.9519 16.0371C16.344 16.4868 16.7126 16.957 17.1083 17.4035C21.6408 22.5199 26.2312 27.5865 30.6767 32.7775C31.9575 34.273 33.2506 33.2512 34.0877 32.8405C38.6148 30.6186 42.9674 28.0451 47.455 25.7382C51.7677 23.5214 56.0819 21.2566 60.5773 19.4697C62.5051 18.7032 62.997 17.9687 62.2434 16.2777C61.3689 14.3156 60.3502 12.4181 59.4254 10.4779C58.9451 9.47015 58.8788 8.60932 60.4226 8.82522C61.9808 9.04303 63.5271 9.51545 65.0833 9.53945C68.4433 9.59139 71.8066 9.43503 75.1682 9.34763C76.2106 9.32049 76.9336 9.4528 76.5268 10.8218C75.2469 15.129 73.9185 19.4264 72.8181 23.7805C72.2913 25.8649 72.2836 28.0764 71.9395 30.2139C71.8268 30.9145 71.3949 31.5633 71.1089 32.2359C70.536 31.5708 69.7388 30.9915 69.443 30.2203C68.9958 29.0538 69.0247 27.7105 68.6219 26.5199C68.0153 24.7274 67.4034 22.8762 66.3851 21.3169C66.0325 20.7771 64.3125 20.6586 63.4737 20.9922C60.4559 22.1923 57.5041 23.5827 54.6132 25.0681C52.6004 26.1022 50.7985 27.5493 48.7793 28.5685C43.1704 31.3992 37.5228 34.1585 31.8106 36.7717C31.2289 37.0377 29.8532 36.3517 29.2781 35.7163C26.7057 32.8744 24.3345 29.8521 21.8078 26.9673C17.5288 22.0818 13.1686 17.2678 8.88086 12.3901C6.83613 10.0641 4.91264 7.63154 2.86493 5.30828C2.12061 4.46351 1.04335 3.89539 0.372271 3.00858C-0.00494215 2.5102 0.136472 1.61905 0.0443644 0.904818C0.591918 0.900415 1.14703 0.834533 1.68574 0.901788C3.94381 1.18411 5.50801 2.36966 6.25346 4.73003ZM64.401 12.4242C63.9051 12.5648 63.4093 12.7055 62.9133 12.8461C63.6796 14.0839 64.3028 15.461 65.2952 16.478C65.6119 16.8027 66.9171 16.204 67.7518 15.9638C68.1462 15.8501 68.4973 15.586 68.8681 15.3899C68.4362 15.2177 68.0067 14.9067 67.5718 14.8983C66.0295 14.8684 64.7762 14.4959 64.401 12.4242ZM68.5968 18.5908C68.3289 19.1984 68.061 19.8059 67.793 20.4135C68.3817 20.2048 69.1098 20.1447 69.5274 19.7533C70.202 19.1207 70.6724 18.2705 71.229 17.5121C70.4819 17.7618 69.7349 18.0114 68.5968 18.5908Z" fill="black"/>
</svg>
