<svg width="200" height="49" viewBox="0 0 200 49" fill="none" xmlns="http://www.w3.org/2000/svg">
<path d="M48.0868 24.0399C48.0868 15.623 43.6821 7.82543 36.4863 3.47309C25.1214 -3.39994 10.3461 0.245905 3.47309 11.6021C-3.39994 22.9583 0.245903 37.7423 11.6021 44.6153C22.967 51.4884 37.7423 47.8425 44.6153 36.4863C43.0977 37.6464 41.3707 38.2831 39.7397 38.2831C39.3036 38.2831 38.8762 38.2395 38.4488 38.1435C35.7449 37.5504 33.8784 35.9107 33.2068 33.5121C32.4218 30.7559 33.3551 27.4938 35.5792 25.1999C35.6228 25.1563 39.26 21.5366 40.7602 20.0975C42.4959 18.4141 43.1326 17.3151 43.1675 16.8267C42.4261 16.879 39.5042 18.4839 36.3555 20.7691C32.4044 23.6386 28.2788 27.3281 24.4411 31.4711C23.6561 32.3259 23.4293 32.5439 23.124 32.5439C22.749 32.5439 22.2344 32.0293 22.2344 31.6543C22.2344 31.3839 22.4001 31.0176 23.2113 30.1105C24.3975 28.7498 24.3975 28.7498 30.0232 22.9583C31.8985 21.0569 33.8435 18.5885 34.3407 17.6465C34.5239 17.2715 34.5762 17.1145 34.5762 16.9401C34.5762 16.9139 34.5675 16.8877 34.5587 16.8616C34.079 16.879 32.2735 17.8995 29.9273 19.8184C27.5025 21.7983 26.3251 22.8885 24.7551 24.694C24.6679 24.8074 24.4149 25.1127 24.1009 25.1127C23.7259 25.0778 23.4293 24.7725 23.4031 24.3887C23.4031 24.1969 23.4031 23.6299 26.4995 20.7342C29.7092 17.7512 32.8754 15.8323 34.5762 15.8323C35.3088 15.8323 35.8147 16.3818 35.8147 17.1668C35.8147 18.2048 35.1955 19.3648 33.5208 21.3883C34.9948 20.1847 36.5212 19.0595 38.1086 18.0129C40.2892 16.565 42.0947 15.7713 43.1936 15.7713C44.031 15.7626 44.7287 16.4167 44.7549 17.254C44.7549 18.1175 44.3275 18.9461 43.1588 20.3155C42.6441 20.9086 41.4231 22.1472 39.417 24.1096L37.6289 25.8715L37.1492 26.3425C35.178 28.2439 34.2971 30.878 34.9163 33.0411C35.4048 34.7681 36.7916 35.963 38.8151 36.4078C39.1117 36.4689 39.417 36.5038 39.7222 36.5038C41.0218 36.5038 42.4261 35.9543 43.6821 34.9425C46.2726 32.8492 47.8425 29.2731 48.0344 25.0255C48.0693 24.6766 48.0868 24.3626 48.0868 24.0399ZM21.0046 22.749C19.7747 23.0979 18.4839 23.4119 17.4285 23.6299C17.8123 23.7171 18.196 23.8393 18.5624 23.9963C19.9928 24.6155 20.7167 25.5662 20.7167 26.8135C20.7167 28.148 19.9666 29.3691 18.4141 30.5291C16.1638 32.2125 13.5035 33.1806 11.0613 33.1806C8.61914 33.1806 7.16255 32.0293 7.16255 30.093V29.936C6.65666 30.5466 6.01995 31.3141 5.85423 31.5234C5.37451 32.195 4.9733 32.509 4.60697 32.509C4.16214 32.509 3.69114 32.0817 3.69114 31.6892C3.69114 31.3664 3.90047 30.9827 4.49358 30.2587C6.0374 28.366 7.37188 26.8222 8.56681 25.5313C9.02908 25.0603 9.46519 24.5632 9.88385 24.0399C9.87513 24.0224 9.85769 23.9963 9.84024 23.9614C9.75302 23.8393 9.70941 23.6997 9.70069 23.5427C9.70069 22.8885 10.5467 22.8188 10.9916 22.8188C13.1634 20.551 14.9165 18.7281 16.2161 17.4023C13.7129 17.7338 11.6719 18.2571 10.4072 18.9025C10.1019 19.0857 9.75302 19.1991 9.39541 19.2252C8.98547 19.1991 8.65403 18.8676 8.62787 18.4577C8.62787 17.8559 9.15992 17.5332 10.2763 17.0709C12.3173 16.2248 14.9601 15.6841 18.135 15.4835L18.2135 15.4137C18.7543 14.934 18.9287 14.8293 19.2776 14.8293C19.6265 14.8293 19.9056 15.1695 19.9492 15.5009C20.7167 15.4922 21.493 15.5707 22.2431 15.7277C24.3102 16.1551 25.4441 17.3064 25.4441 18.981C25.418 20.6731 23.9788 21.8942 21.0046 22.749Z" fill="black"/>
<path d="M127.763 22.4158C127.519 22.4158 127.397 22.4943 126.882 22.9828L126.69 23.1398C126.568 22.0931 126.045 21.6483 125.077 21.6483C123.515 21.6483 120.654 23.0613 118.561 24.8232C112.805 29.7686 109.804 31.7485 107.938 31.7485C107.493 31.7485 107.257 31.5915 107.257 31.2688C107.257 30.7891 107.824 29.5418 108.784 27.8061C109.909 25.7913 110.231 25.3901 111.33 24.5877C116.921 20.3662 118.378 19.1102 121.274 15.9789C123.951 13.0919 125.164 11.2254 125.164 10.0217C125.164 9.41989 124.841 9.05356 124.283 9.05356C122.634 9.05356 118.413 12.5511 113.293 18.1856C111.487 20.1132 109.874 22.2065 108.461 24.4307L102.181 29.0447C99.7649 30.8153 97.5757 31.7398 96.5029 31.7398C96.058 31.7398 95.8225 31.5828 95.8225 31.2601C95.8225 30.7804 96.3895 29.5331 97.3489 27.7974C98.4741 25.7826 98.7968 25.3814 99.8958 24.5789C105.487 20.3574 106.943 19.1014 109.839 15.9702C112.525 13.0745 113.729 11.2166 113.729 10.013C113.729 9.41116 113.406 9.04483 112.839 9.04483C111.191 9.04483 106.969 12.5424 101.85 18.1769C100.044 20.1045 98.4304 22.1978 97.0262 24.4219L90.7463 29.0359C88.3302 30.8065 86.8126 31.5479 85.4868 31.6962C84.1611 31.8445 83.0272 31.3299 83.0272 30.1611C83.0272 29.7075 83.1057 29.254 83.2714 28.8353C84.4838 28.4079 85.6525 27.8846 86.769 27.2741C90.1095 25.5384 91.601 24.0905 91.601 22.599C91.601 21.753 91.0777 21.3081 90.0747 21.3081C88.8274 21.3081 87.1353 22.1542 84.885 23.8812C82.9923 25.3727 82.0241 26.5327 81.1868 28.469L80.96 29.1144C79.2854 29.9082 75.6919 31.3735 71.4704 31.5828C72.9095 30.9199 74.2789 30.1088 75.5523 29.1581C77.9683 27.3438 79.1371 25.4599 79.1371 23.4451C79.1371 21.596 78.0468 20.183 75.9186 19.2584C74.8284 18.8136 74.2266 18.6566 71.8105 18.2118C73.5724 17.9676 76.7996 17.2436 79.9396 16.3627C84.6059 15.0369 86.8213 13.1878 86.8213 10.6846C86.8213 8.13773 85.0943 6.46309 81.9544 5.81765C80.5414 5.53854 79.5819 5.45132 77.8114 5.45132C77.8462 5.34665 77.855 5.24199 77.855 5.1286C77.855 4.76227 77.5322 4.36105 77.2095 4.36105C76.8083 4.36105 76.6426 4.43955 75.7617 5.2071L75.5174 5.39899C70.4063 5.7217 66.0626 6.57647 62.6785 7.97201C60.8294 8.73956 60.2624 9.17567 60.2624 9.8211C60.306 10.2485 60.6375 10.5799 61.0649 10.6235C61.3876 10.6235 61.9109 10.4665 62.5127 10.1438C64.8939 8.94017 68.7927 8.01562 73.4154 7.4923C71.2 9.7426 68.0164 13.0483 63.8821 17.3919C62.5912 17.3919 62.033 17.6361 62.033 18.1158C62.033 18.2816 62.0941 18.4298 62.19 18.5607C62.2685 18.6828 62.3209 18.8223 62.347 18.9619C62.347 19.1189 61.7016 19.8864 60.0531 21.657C57.8813 23.9946 55.5874 26.6897 53.4156 29.3412C52.5695 30.3879 52.2119 30.9897 52.2119 31.3909C52.2119 31.7921 52.7789 32.2806 53.2586 32.2806C53.6598 32.2806 54.2267 31.8357 54.9507 30.8327C55.6746 29.943 57.5237 27.7015 58.0819 27.0909C57.9423 27.6404 57.8726 28.2161 57.89 28.783C57.89 31.6787 60.1054 33.3708 63.8036 33.3708C65.8359 33.3447 67.842 32.9783 69.7521 32.2806C70.005 32.2806 70.258 32.298 70.5109 32.298C74.9679 32.298 78.8318 30.8589 80.8379 29.9518C80.8379 30.0477 80.8292 30.1349 80.8292 30.2396C80.8292 31.7311 81.7101 32.4899 83.4022 32.4899C86.769 32.4899 88.7925 31.3996 92.2116 28.8266C93.5025 27.9021 94.8282 26.9339 96.1191 25.9658C95.0724 27.9806 94.5578 29.5505 94.5578 30.7542C94.5578 31.8445 95.1248 32.4027 96.1627 32.4027C97.881 32.4027 100.227 31.3996 103.646 28.8179C104.937 27.8933 106.263 26.9252 107.554 25.957C106.507 27.9718 105.993 29.5418 105.993 30.7455C105.993 31.8357 106.559 32.394 107.597 32.394C109.49 32.394 111.339 31.4258 113.956 29.4546C114.723 28.8528 114.837 28.7656 115.604 28.2073C115.308 28.8528 115.151 29.5418 115.125 30.2483C115.125 31.295 115.814 31.9753 116.817 31.9753C117.994 31.9753 118.422 31.6962 122.128 28.5562C121.204 30.1175 121.038 30.5274 121.038 31.2078C121.038 31.8881 121.605 32.3852 122.364 32.3852C123.454 32.3852 123.69 32.3067 123.69 31.984C123.69 31.7398 123.611 31.6613 123.289 31.6613C122.722 31.6613 122.399 31.5392 122.399 31.2165C122.399 30.9374 122.678 30.4489 123.323 29.6552C124.248 28.5301 125.05 27.5183 125.774 26.6374C126.341 25.9919 126.341 25.9919 126.821 25.3901C128.426 23.4189 128.426 23.4189 128.426 22.9392C128.408 22.6165 128.129 22.4158 127.763 22.4158ZM117.706 16.0574C122.05 11.1905 123.62 9.65538 124.187 9.65538C124.353 9.67283 124.475 9.81238 124.466 9.9781C124.466 12.115 118.875 18.0286 111.592 23.541C112.752 21.7704 114.209 20.0347 117.706 16.0574ZM106.272 16.0574H106.28C110.624 11.1905 112.194 9.65538 112.761 9.65538C112.927 9.67283 113.049 9.81238 113.04 9.9781C113.04 12.115 107.449 18.0286 100.166 23.541C101.326 21.7704 102.774 20.0347 106.272 16.0574ZM89.5775 22.0495C89.813 22.0582 89.9962 22.2589 89.9874 22.4944V22.5292C89.9874 23.7329 86.8911 26.3931 83.5505 28.0416C84.5448 25.5471 88.086 22.0495 89.5775 22.0495ZM69.8132 14.0426C72.3077 11.3475 74.401 9.13206 76.0495 7.32658C77.227 7.24808 77.2967 7.24808 77.8986 7.24808C83.3325 7.24808 85.7834 8.05051 85.7834 9.86471C85.7834 12.9262 78.4219 15.8219 66.7517 17.3483C68.0077 15.9702 68.1647 15.8132 69.8132 14.0426ZM63.2541 31.4258C60.4718 31.4258 58.7012 30.3355 58.7012 28.6522C58.7012 27.2392 59.5821 25.5558 61.719 22.9392C62.8529 21.5436 64.074 20.2266 65.3823 18.9968C66.0539 18.8572 66.743 18.7874 67.432 18.8049C70.4499 18.8049 72.988 19.2497 75.2383 20.1307C76.8519 20.7325 77.6543 21.657 77.6543 22.7822C77.6631 26.6374 69.6562 31.4258 63.2541 31.4258ZM122.216 27.6404C119.721 29.8558 118.029 31.0595 117.392 31.0595C117.131 31.0682 116.913 30.8589 116.904 30.5972V30.5361C116.904 29.568 118.195 27.9893 121.535 25.0238C123.707 23.0526 124.597 22.4507 125.277 22.4507C125.678 22.4507 125.879 22.695 125.879 23.0962C125.87 23.9771 124.71 25.3901 122.216 27.6404ZM177.706 17.5402C179.075 17.5402 180.479 16.572 180.479 15.6475C180.479 15.002 180.078 14.5572 179.476 14.5572C178.151 14.5572 176.781 15.6039 176.781 16.572C176.781 17.1826 177.148 17.5402 177.706 17.5402ZM187.937 17.5402H188.05C188.609 17.514 189.158 17.357 189.664 17.0954C190.466 16.6941 190.841 16.2493 190.841 15.6475C190.841 15.002 190.44 14.5572 189.838 14.5572C188.513 14.5572 187.143 15.6039 187.143 16.6069C187.1 17.0954 187.457 17.514 187.937 17.5402Z" fill="black"/>
<path d="M199.354 22.4158C199.11 22.4158 198.988 22.4943 198.465 22.9828L198.273 23.1398C198.151 22.0931 197.627 21.6483 196.668 21.6483C195.107 21.6483 192.22 23.0351 190.152 24.8232C189.917 25.015 189.699 25.2244 189.498 25.4075C186.044 28.0765 181.962 30.0477 179.032 31.1205L180.331 29.5593C181.055 28.6783 181.823 27.7974 182.547 26.8641C183.349 25.896 184.195 24.8929 185.041 23.8463C185.887 22.8432 186.166 22.3199 186.166 21.753C186.166 21.2296 185.8 20.9854 185.076 20.9854C184.631 20.9854 183.899 21.5087 182.46 22.9566C175.9 28.8266 171.635 31.6875 170.109 31.6875C169.324 31.6875 169.062 31.609 169.062 31.1641C169.062 30.6844 169.664 29.8384 172.159 26.899C175.255 23.2793 175.377 23.1136 175.377 22.5118C175.377 22.0495 175.002 21.6657 174.531 21.6657C173.807 21.6657 173.284 21.91 172.717 22.5467C172.115 23.2706 169.978 24.9976 164.832 29.0272C162.582 30.7978 160.523 31.6787 159.677 31.6787C159.11 31.6787 158.796 31.5566 158.796 31.2339C158.796 30.9548 159.076 30.4664 159.721 29.6727C160.645 28.5475 161.448 27.5357 162.172 26.6548C162.739 26.0094 162.739 26.0094 163.219 25.4075C164.832 23.4363 164.832 23.4363 164.832 22.9566C164.832 22.5903 164.553 22.3897 164.187 22.3897C163.942 22.3897 163.82 22.4682 163.297 22.9566L163.105 23.1136C162.983 22.067 162.46 21.6221 161.5 21.6221C159.939 21.6221 157.078 23.0351 154.985 24.797C149.228 29.7424 146.271 31.7224 144.117 31.7224C143.594 31.7224 143.236 31.4432 143.236 31.1205C143.236 30.353 145.373 28.1027 155.028 18.6828C158.491 15.3073 160.34 13.4146 161.108 12.525C162.922 10.388 163.602 9.10589 163.602 7.81501C163.602 6.72474 162.634 5.84381 161.509 5.84381C159.817 5.84381 156.921 7.13468 153.458 9.4286C150.72 11.1905 148.19 13.1268 143.96 16.5546C142.835 17.4791 142.634 17.6448 141.71 18.3688C142.913 17.1913 143.559 16.4761 145.085 14.627C147.946 11.1643 148.993 9.27161 148.993 7.66673C148.993 6.62008 148.347 5.93975 147.431 5.93975C144.78 5.93975 139.669 9.071 134.558 13.8246C131.496 16.6854 129.647 18.77 129.647 19.459C129.647 19.7818 130.013 20.183 130.336 20.183C130.528 20.183 130.816 19.9911 131.06 19.6597C133.607 16.7639 135.447 14.9933 139.547 11.6527C143.044 8.79189 146.306 6.74219 147.431 6.74219C147.676 6.74219 147.876 6.98641 147.876 7.30913C147.876 7.71035 147.754 8.03306 147.431 8.6785C146.551 10.3706 143.245 14.47 140.305 17.453C131.112 26.9165 131.112 26.9165 129.176 29.1319C128.086 30.3355 127.685 30.981 127.685 31.3473C127.685 31.7136 128.33 32.3504 128.688 32.3504C128.967 32.3504 129.289 32.0712 130.502 30.7368C136.817 23.9335 143.498 17.9414 150.022 13.2315C155.011 9.61177 160.122 6.71602 161.448 6.71602C161.657 6.7073 161.832 6.87302 161.84 7.08235V7.12596C161.84 8.25112 160.349 10.3444 157.776 12.839C153.99 16.4586 150.894 19.5201 146.83 23.7067C141.518 29.1842 140.995 29.8209 140.995 31.1467C140.995 32.0712 141.797 32.7952 142.844 32.7952C145.94 32.7952 148.243 31.0071 150.327 29.4982C151.112 28.9226 151.208 28.8092 151.976 28.251C151.679 28.8964 151.513 29.6029 151.505 30.3181C151.505 31.3647 152.194 32.0451 153.197 32.0451C154.374 32.0451 154.81 31.766 158.509 28.626C157.584 30.1873 157.418 30.5972 157.418 31.2775C157.418 31.9579 157.985 32.455 158.744 32.455C160.994 32.455 163.271 31.1554 166.271 28.7917C168.391 27.1171 170.092 25.7303 172.028 24.1254C168.731 28.0678 167.684 29.7163 167.684 31.0508C167.684 31.8532 168.373 32.4201 169.298 32.4201C172.455 32.4201 176.162 29.3848 183.218 23.2881C181.047 25.9832 178.674 28.9226 176.057 32.0625C173.511 32.7865 171.592 33.7895 169.664 35.5252C167.292 37.6621 165.478 40.7149 165.478 42.6076C165.478 43.2879 165.879 43.7851 166.446 43.7851C167.292 43.7851 168.208 43.0611 170.432 40.7236C176.023 34.81 176.023 34.81 177.959 32.4725L178.168 32.2282C181.456 31.1118 184.596 29.6029 187.518 27.7276C187.388 27.9108 187.274 28.1027 187.169 28.3033C186.873 28.94 186.707 29.629 186.681 30.3355C186.681 31.3822 187.37 32.0625 188.373 32.0625C189.551 32.0625 189.978 31.7834 193.685 28.6434C192.76 30.2047 192.595 30.6146 192.595 31.295C192.595 31.9753 193.162 32.4725 193.92 32.4725C195.011 32.4725 195.246 32.394 195.246 32.0712C195.246 31.827 195.168 31.7485 194.845 31.7485C194.278 31.7485 193.964 31.6264 193.964 31.3037C193.964 31.0246 194.243 30.5361 194.889 29.7424C195.813 28.6173 196.616 27.6055 197.339 26.7246C197.906 26.0791 197.906 26.0791 198.386 25.4773C200 23.4887 200 23.4887 200 23.009C200 22.6165 199.721 22.4158 199.354 22.4158ZM158.631 27.6404C156.136 29.8558 154.444 31.0595 153.799 31.0595C153.537 31.0682 153.319 30.8589 153.31 30.5972V30.5361C153.31 29.568 154.601 27.9893 157.942 25.0238C160.113 23.0526 161.003 22.4507 161.683 22.4507C162.085 22.4507 162.285 22.695 162.285 23.0962C162.294 23.9771 161.125 25.3901 158.631 27.6404ZM171.025 38.0633C167.44 42.2064 167.039 42.6512 166.559 42.6512C166.367 42.6512 166.236 42.4593 166.236 42.1715C166.236 40.9242 167.606 38.4733 169.211 36.7812C170.972 34.967 173.275 33.5191 175.447 32.9173C174.81 33.6761 174.81 33.6761 171.025 38.0633ZM193.798 27.6404C191.304 29.8558 189.612 31.0595 188.975 31.0595C188.713 31.0682 188.495 30.8589 188.487 30.5972V30.5361C188.487 29.568 189.777 27.9893 193.118 25.0238C195.29 23.0526 196.179 22.4507 196.86 22.4507C197.261 22.4507 197.462 22.695 197.462 23.0962C197.462 23.9771 196.302 25.3901 193.798 27.6404Z" fill="black"/>
</svg>
