<svg width="92" height="52" viewBox="0 0 92 52" fill="none" xmlns="http://www.w3.org/2000/svg">
<path d="M49.1982 35.6856C48.944 35.6856 48.6898 35.592 48.4892 35.3913C48.1013 35.0034 48.1013 34.3613 48.4892 33.9733L55.9001 26.5624L48.4892 19.1515C48.1013 18.7636 48.1013 18.1215 48.4892 17.7336C48.8771 17.3456 49.5192 17.3456 49.9072 17.7336L58.027 25.8535C58.415 26.2414 58.415 26.8835 58.027 27.2714L49.9072 35.3913C49.7065 35.592 49.4523 35.6856 49.1982 35.6856Z" fill="white"/>
<path d="M57.0901 27.5659H34.5765C34.0281 27.5659 33.5732 27.1111 33.5732 26.5626C33.5732 26.0141 34.0281 25.5593 34.5765 25.5593H57.0901C57.6386 25.5593 58.0934 26.0141 58.0934 26.5626C58.0934 27.1111 57.6386 27.5659 57.0901 27.5659Z" fill="white"/>
<rect x="1" y="0.878418" width="89.8939" height="49.7627" rx="24.8813" stroke="white" stroke-width="0.908019"/>
</svg>
