<svg width="200" height="29" viewBox="0 0 200 29" fill="none" xmlns="http://www.w3.org/2000/svg">
<path d="M59.8272 15.2305H54.1291C53.9353 12.9812 52.5324 11.5902 50.4371 11.5902C47.7819 11.5902 46.1852 13.9194 46.1852 17.6721C46.1852 21.4249 47.7819 23.7511 50.4371 23.7511C52.5447 23.7511 53.9476 22.2122 54.1047 19.7349H59.8396C59.4091 24.5767 55.8214 27.8057 50.4742 27.8057C44.428 27.8057 40.487 23.8251 40.487 17.6721C40.487 11.5192 44.4161 7.53856 50.4619 7.53856C55.8091 7.53856 59.3843 10.7645 59.8272 15.2305ZM67.0482 10.6313C68.4759 8.66025 70.433 7.68953 72.5464 7.68953C76.9926 7.68953 79.8412 10.3146 79.8412 15.4939V27.2049H74.3802V16.0207C74.3802 13.1292 73.0511 11.8181 70.9068 11.8181C68.6454 11.8181 67.0054 13.5051 67.0054 16.9944V27.2049H61.5377V0.482998H66.9992L66.9654 10.6313H67.0482ZM95.2895 21.4189H100.871C100.089 24.9083 96.6557 27.7997 91.3885 27.7997C85.146 27.7997 81.5183 23.5942 81.5183 17.5153C81.5183 11.8921 85.146 7.53266 91.3637 7.53266C95.9266 7.53266 99.2833 10.0098 100.529 13.875C100.96 15.1891 101.145 16.6511 101.145 18.7554H86.9023C87.0594 22.6945 89.0565 24.0825 91.3885 24.0825C93.5728 24.0825 95.0157 22.9638 95.2895 21.4189ZM87.0194 15.4495H95.6895C95.339 12.5609 93.5361 11.2469 91.3608 11.2469C89.1856 11.2469 87.447 12.5669 87.0194 15.4554V15.4495ZM119.343 13.9875H114.113C114.113 12.0371 112.941 11.2114 110.99 11.2114C109.236 11.2114 108.298 11.8862 108.298 12.9871C108.298 14.3367 109.547 14.6741 112.55 15.4258C116.101 16.3137 120.002 17.2015 120.002 21.8422C120.002 25.4083 116.648 27.8116 111.264 27.8116C105.763 27.8116 102.369 25.6334 102.369 21.0046H107.907C107.907 22.9193 109.116 24.0085 111.381 24.0085C113.292 24.0085 114.267 23.2953 114.267 22.1676C114.267 20.5162 112.784 20.1788 109.704 19.3915C106.387 18.5659 102.837 17.817 102.837 13.3867C102.837 9.97134 106.114 7.53266 111.03 7.53266C116.221 7.5386 119.343 9.75233 119.343 13.9934V13.9875ZM132.807 23.0704V27.0864C131.866 27.3334 130.894 27.4588 129.918 27.4594C125.355 27.4594 123.365 25.6837 123.365 21.268V12.0431H120.165V8.13938H123.38V3.18508H128.826V8.13938H132.61V12.0431H128.826V20.3297C128.826 22.4311 129.531 23.2569 131.401 23.2569C131.876 23.2626 132.35 23.2019 132.807 23.0762V23.0704ZM147.594 8.0565V12.5994C147.029 12.4852 146.454 12.4218 145.877 12.41C142.52 12.41 140.727 14.4373 140.727 18.19V27.1989H135.266V8.13938H140.302V10.8414H140.382C141.708 8.76977 143.459 7.83748 145.803 7.83748C146.408 7.83992 147.009 7.91546 147.594 8.06243V8.0565ZM165.932 15.0766V21.9812C165.932 24.3845 166.125 25.9234 166.476 27.1989H161.553C161.36 26.3607 161.268 25.5035 161.282 24.6449H161.224C159.744 26.6721 157.532 27.6488 154.788 27.6488C150.572 27.6488 148.037 25.1715 148.037 21.8688C148.037 18.7554 149.988 16.6511 155.729 15.7898C157.212 15.5649 159.421 15.34 160.686 15.2631V14.5882C160.686 12.1851 159.36 11.2114 157.446 11.2114C155.418 11.2114 154.249 12.2976 154.169 14.1H148.84C149.037 10.4597 151.766 7.53266 157.424 7.53266C163.082 7.53266 165.932 10.0897 165.932 15.0825V15.0766ZM160.664 18.4594C159.492 18.5333 157.855 18.6842 156.683 18.8707C154.421 19.2466 153.486 19.9599 153.486 21.4988C153.486 22.9253 154.498 23.902 156.412 23.902C157.541 23.902 158.751 23.5646 159.532 22.8129C160.455 21.9251 160.664 20.8981 160.664 19.1727V18.4594ZM179.254 23.0762V27.0924C178.312 27.3391 177.342 27.4645 176.368 27.4653C171.802 27.4653 169.811 25.6896 169.811 21.2738V12.0431H166.614V8.13938H169.811V3.18508H175.275V8.13938H179.068V12.0431H175.285V20.3297C175.285 22.4311 175.986 23.2569 177.86 23.2569C178.332 23.2618 178.8 23.2009 179.254 23.0762ZM194.146 21.4189H199.723C198.944 24.9083 195.511 27.7997 190.244 27.7997C184.002 27.7997 180.37 23.5942 180.37 17.5153C180.37 11.8921 184.002 7.53266 190.216 7.53266C194.782 7.53266 198.135 10.0098 199.384 13.875C199.816 15.1891 200 16.6511 200 18.7554H185.749C185.905 22.6945 187.902 24.0825 190.237 24.0825C192.423 24.0825 193.865 22.9638 194.146 21.4189ZM185.872 15.4495H194.535C194.184 12.5609 192.382 11.2469 190.204 11.2469C188.025 11.2469 186.296 12.5669 185.865 15.4554L185.872 15.4495ZM38.9086 7.83748C36.5672 7.83748 34.8135 8.77567 33.4874 10.8414H33.4074V8.13938H28.3739V13.0019C27.7202 13.3866 27.0361 13.721 26.3279 14.0023C26.9432 8.59216 25.9463 4.0463 21.5744 1.65498C14.3717 -2.28715 5.25229 1.00091 1.57559 9.52149C-1.30423 16.2012 -0.944251 26.1216 8.71975 27.785C16.63 29.1434 22.1958 24.8757 24.2204 20.315C25.6484 19.9825 27.0388 19.5146 28.3709 18.918V27.2049H33.8474V18.196C33.8325 17.3336 33.9507 16.4739 34.1981 15.6448C34.2777 15.3804 34.3807 15.123 34.5058 14.8753C35.3058 13.2624 36.8226 12.416 38.9886 12.416C39.5647 12.4275 40.1384 12.4909 40.7023 12.6054V8.06243C40.1167 7.9148 39.514 7.83922 38.9086 7.83748ZM11.5873 23.1354C7.87979 23.1533 5.85225 20.6198 5.85225 16.5682C5.89328 15.1326 6.12701 13.7081 6.54759 12.3301C7.28602 14.3574 9.21204 17.1542 11.7042 18.7258C13.3964 19.7911 15.304 20.5695 17.1654 20.7412C15.7901 22.0523 14.0579 23.1266 11.5873 23.1354ZM20.0914 15.6419C19.6077 15.6787 19.1216 15.6728 18.6391 15.6241C13.5133 15.2216 11.415 11.4038 11.3657 8.81711C11.3288 6.77798 12.7534 4.96969 14.9163 4.96969H14.9409C18.6484 4.96969 20.7405 7.37287 20.716 11.5014C20.726 12.904 20.5154 14.2999 20.0914 15.6419Z" fill="#808285"/>
</svg>
