<svg width="48" height="48" viewBox="0 0 48 48" fill="none" xmlns="http://www.w3.org/2000/svg">
<circle cx="24" cy="24" r="24" fill="black"/>
<path d="M14.25 14.7886V33.2105C14.2501 33.2505 14.262 33.2895 14.2843 33.3227C14.3065 33.3559 14.338 33.3819 14.3749 33.3972C14.4118 33.4126 14.4524 33.4167 14.4917 33.4091C14.5309 33.4015 14.567 33.3825 14.5955 33.3544L24.1875 24L14.5955 14.6447C14.567 14.6166 14.5309 14.5976 14.4917 14.59C14.4524 14.5824 14.4118 14.5865 14.3749 14.6019C14.338 14.6172 14.3065 14.6432 14.2843 14.6764C14.262 14.7096 14.2501 14.7486 14.25 14.7886ZM28.2094 20.1563L16.1822 13.53L16.1747 13.5258C15.9675 13.4133 15.7706 13.6936 15.9403 13.8567L25.3683 22.8717L28.2094 20.1563ZM15.9413 34.1433C15.7706 34.3064 15.9675 34.5867 16.1756 34.4742L16.1831 34.47L28.2094 27.8438L25.3683 25.1274L15.9413 34.1433ZM33.0647 22.8281L29.7061 20.9785L26.5481 24L29.7061 27.0202L33.0647 25.1719C33.9783 24.667 33.9783 23.333 33.0647 22.8281Z" fill="white"/>
</svg>
