<svg width="200" height="43" viewBox="0 0 200 43" fill="none" xmlns="http://www.w3.org/2000/svg">
<path fill-rule="evenodd" clip-rule="evenodd" d="M0 21.5578C0 29.6057 4.98927 37.3282 11.5404 40.6689C13.5795 41.6884 16.6164 42.9466 19.5883 42.9466V26.8291C18.7206 27.046 17.7228 28.3909 17.0937 29.0417C15.7271 30.4083 15.5101 31.1676 13.7747 31.1676C12.7335 31.1676 11.9743 30.2782 11.9743 28.9983C11.9743 27.3497 15.4451 25.0503 16.3127 23.727C12.343 23.727 8.89392 24.6381 8.89392 21.3842C8.89392 20.7552 9.241 20.1912 9.60977 19.9308C10.4341 19.3235 14.8594 19.5621 16.3127 19.5621C16.1392 18.8896 14.5774 17.5447 14.0133 16.9807C13.3192 16.3082 11.9743 15.3103 11.9743 14.1173C11.9743 12.5988 12.7986 11.948 14.1435 11.948C15.38 11.948 17.0286 14.0305 18.1783 15.1585C18.6338 15.6357 18.9158 16.113 19.5883 16.3082C19.5883 13.7702 18.8725 10.8634 21.7576 10.8634C22.7771 10.8634 23.493 11.6443 23.6882 12.5554C23.8834 13.4231 23.7533 15.332 23.7533 16.3082C25.4887 15.1368 27.0288 11.948 29.3716 11.948C30.8033 11.948 31.1938 13.1194 31.1938 14.3125C31.1938 15.332 29.7621 16.3733 29.1547 16.9807L27.9616 18.1521C27.5061 18.6076 27.0071 18.8896 26.8336 19.5621C28.005 19.5621 32.799 19.2801 33.6017 19.8875C35.0117 20.9504 34.7731 23.6836 31.9096 23.7487C30.2393 23.7704 28.5256 23.727 26.8336 23.727C28.5907 26.3518 31.1938 26.7206 31.1938 29.5406C31.1938 31.1242 29.7621 31.1676 28.8293 31.1676C27.4193 31.1676 25.4453 27.9571 23.7533 26.8291V42.9466C26.7035 42.9466 29.4367 41.7318 31.4975 40.7122C38.1137 37.4367 43.1464 29.866 43.1464 22.4689C43.1464 16.8288 41.6713 11.4708 37.9402 7.54444C36.4217 5.96089 35.9445 5.28842 33.7535 3.76994C19.6751 -6.01337 0 4.42072 0 21.5578ZM152.129 26.0915V20.2996C152.129 17.7616 158.659 17.7616 158.659 20.2996V26.0915C158.659 26.7857 158.355 27.0894 157.921 27.3714C156.468 28.3041 152.129 28.3258 152.129 26.0915ZM158.659 15.9394C156.945 15.8093 157.618 15.5707 154.667 15.5707C152.173 15.5707 149.049 16.9807 149.049 19.3885V27.0026C149.049 28.456 149.982 29.2152 150.936 29.8226C152.802 31.0591 156.164 31.0374 158.312 30.4517C159.874 30.0179 157.791 30.7988 160.828 30.7988C161.24 30.7988 161.739 30.3215 161.739 29.9094V9.58353C161.739 8.47721 159.158 8.15183 158.724 9.6703C158.55 10.2994 158.659 11.102 158.659 11.7745V15.9394ZM97.0088 26.0915V20.2996C97.0088 19.5838 97.2908 19.2801 97.7247 19.0198C98.9828 18.2171 101.564 18.2171 102.801 19.0198C103.235 19.2801 103.538 19.5838 103.538 20.2996V26.0915C103.538 28.3258 99.178 28.3041 97.7247 27.3714C97.2908 27.0894 97.0088 26.7857 97.0088 26.0915ZM103.538 15.9394C101.846 15.8093 102.497 15.5707 99.5468 15.5707C97.0522 15.5707 93.9285 16.9807 93.9285 19.3885V27.0026C93.9285 28.456 94.8612 29.2152 95.8157 29.8226C97.6813 31.0591 101.044 31.0374 103.191 30.4517C104.753 30.0179 102.671 30.7988 105.707 30.7988C106.12 30.7988 106.619 30.3215 106.619 29.9094V9.58353C106.619 8.47721 104.037 8.15183 103.603 9.6703C103.43 10.2994 103.538 11.102 103.538 11.7745V15.9394ZM111.868 26.0915V20.2996C111.868 19.5838 112.15 19.2801 112.584 19.0198C113.842 18.2171 116.424 18.2171 117.682 19.0198C118.116 19.2801 118.398 19.5838 118.398 20.2996V26.0915C118.398 28.3258 114.059 28.3041 112.584 27.3714C112.15 27.0894 111.868 26.7857 111.868 26.0915ZM108.788 9.58353V29.9094C108.788 30.994 110.241 30.7988 110.784 30.7988C111.217 30.7988 111.326 30.5168 111.695 30.2565C113.712 31.2326 117.66 30.9289 119.461 29.866C120.176 29.4538 121.478 28.2391 121.478 27.1761V19.3885C121.478 17.0024 118.333 15.5707 115.86 15.5707C112.909 15.5707 113.56 15.8093 111.868 15.9394V11.7745C111.868 8.99783 111.912 8.69414 109.699 8.69414C109.265 8.69414 108.788 9.17137 108.788 9.58353ZM82.1278 20.2996C82.1278 17.7616 88.6572 17.7616 88.6572 20.2996V21.0155H82.1278V20.2996ZM79.0474 19.3885V27.0026C79.0474 32.3606 91.7375 31.7533 91.7375 27.1761C91.7375 24.9418 91.8677 24.8333 89.7418 24.8333C88.3101 24.8333 89.1995 27.9137 86.4879 27.9137C81.9108 27.9137 82.1278 27.4798 82.1278 23.727H90.8481C92.1497 23.727 91.7375 21.2324 91.7375 19.3885C91.7375 17.0024 88.5921 15.5707 86.1192 15.5707H84.6658C82.1711 15.5707 79.0474 16.9807 79.0474 19.3885ZM67.2684 20.2996C67.2684 18.0653 71.6069 18.087 73.082 19.0198C73.9063 19.5404 73.7978 20.0393 73.7978 21.0155H67.2684V20.2996ZM64.1881 19.3885V27.0026C64.1881 32.3606 76.8782 31.7533 76.8782 27.1761C76.8782 24.9418 77.0083 24.8333 74.8825 24.8333C73.4508 24.8333 74.3401 27.9137 71.6286 27.9137C67.0298 27.9137 67.2684 27.4798 67.2684 23.727H75.9671C77.2903 23.727 76.8782 21.2324 76.8782 19.3885C76.8782 17.0024 73.7328 15.5707 71.2598 15.5707H69.8064C67.3118 15.5707 64.1881 16.9807 64.1881 19.3885ZM166.989 20.2996C166.989 17.7616 173.518 17.7616 173.518 20.2996V21.0155H166.989V20.2996ZM163.908 19.3885V27.0026C163.908 28.456 164.863 29.2152 165.796 29.8226C168.854 31.84 176.599 30.7337 176.599 27.1761C176.599 24.9418 176.729 24.8333 174.603 24.8333C173.627 24.8333 173.648 26.0481 173.388 26.6989C172.716 28.4126 166.989 28.5861 166.989 26.0915V23.727H175.687C177.011 23.727 176.599 21.2324 176.599 19.3885C176.599 17.0024 173.453 15.5707 170.98 15.5707H169.527C167.032 15.5707 163.908 16.9807 163.908 19.3885ZM187.293 19.0198V20.2996C187.293 26.1349 196.903 23.4667 196.903 26.0915C196.903 28.2608 194.473 28.0872 192.738 28.0872C188.942 28.0872 191.653 24.4646 188.746 24.4646C186.989 24.4646 187.293 25.8746 187.293 27.3714C187.293 29.3237 190.352 30.994 192.911 30.994C194.994 30.994 196.36 31.1025 198.226 29.9311C199.983 28.8465 199.983 27.61 199.983 25.918C199.983 20.6467 190.373 22.9461 190.373 20.4732C190.373 18.0436 192.369 18.3039 194.733 18.3039C195.428 18.3039 196.577 18.933 196.794 19.497C197.25 20.6901 196.599 21.5578 198.725 21.5578C200.243 21.5578 199.983 20.4298 199.983 19.3885C199.983 17.0457 197.12 15.3971 194.733 15.3971C192.803 15.3971 190.829 15.2887 189.18 16.3733C188.421 16.8722 187.293 17.8918 187.293 19.0198ZM49.1335 19.0198V20.2996C49.1335 26.1349 58.7433 23.4667 58.7433 26.0915C58.7433 28.2608 56.3137 28.0872 54.5783 28.0872C50.7821 28.0872 53.4937 24.4646 50.5869 24.4646C48.8298 24.4646 49.1335 25.8746 49.1335 27.3714C49.1335 29.3237 52.1921 30.994 54.7518 30.994C56.8343 30.994 58.2009 31.1025 60.0665 29.9311C61.8236 28.8465 61.8236 27.61 61.8236 25.918C61.8236 20.6467 52.2138 22.9461 52.2138 20.4732C52.2138 18.0436 54.2095 18.3039 56.574 18.3039C58.8083 18.3039 58.7866 20.5599 58.9168 20.8419C59.5025 22.0567 61.8236 21.6446 61.8236 20.6467V19.3885C61.8236 17.0457 58.9602 15.3971 56.574 15.3971C54.6434 15.3971 52.6694 15.2887 51.0207 16.3733C50.2615 16.8722 49.1335 17.8918 49.1335 19.0198ZM123.842 16.4817V27.0026C123.842 29.4105 126.966 30.7988 129.461 30.7988H130.914C133.387 30.7988 136.533 29.3888 136.533 27.0026V16.4817C136.533 15.3754 134.081 15.0717 133.561 16.4167C133.365 16.9156 133.452 17.6748 133.452 18.3039V26.0915C133.257 28.4343 129.114 28.2174 127.747 27.4364C126.402 26.6555 126.923 24.8984 126.923 22.2953L126.858 16.5468C126.424 15.0283 123.842 15.3537 123.842 16.4817ZM143.778 9.58353V29.9094C143.778 31.1242 146.858 31.4062 146.858 29.3671V10.1475C146.858 8.08675 143.778 8.36875 143.778 9.58353ZM178.768 16.4817V29.9094C178.768 31.0374 181.588 31.4496 181.848 29.5189V22.1001C181.848 19.9308 181.631 19.2801 183.302 18.651C184.777 18.087 186.577 19.0415 186.577 16.8505C186.577 14.8331 183.475 15.5707 182.325 15.896C180.351 16.4384 182.694 15.5707 179.679 15.5707C179.267 15.5707 178.768 16.0696 178.768 16.4817ZM138.702 16.4817V29.9094C138.702 31.1242 141.782 31.4062 141.782 29.3671V17.0241C141.782 14.985 138.702 15.267 138.702 16.4817ZM138.702 9.58353C138.702 12.0131 138.55 12.1216 140.697 12.1216C142.151 12.1216 142.151 8.69414 140.697 8.69414C140.155 8.69414 138.702 8.49891 138.702 9.58353Z" fill="#808285"/>
</svg>
