<svg width="128" height="129" viewBox="0 0 128 129" fill="none" xmlns="http://www.w3.org/2000/svg">
<path d="M38.8341 56.5881C38.223 55.7635 37.6746 54.9534 37.0954 54.1659C36.9996 54.0356 36.7456 53.9087 36.6062 53.9441C36.1149 54.0689 35.6114 53.9005 35.1068 54.1371C34.59 54.3795 33.9806 54.4246 33.4117 54.5556C33.3378 54.5726 33.2605 54.579 33.1895 54.604C32.1494 54.9688 31.1175 55.3593 30.0672 55.6915C29.6182 55.8335 29.1327 55.8693 28.6603 55.922C28.5267 55.937 28.3808 55.8412 28.2407 55.7962C28.3019 55.6423 28.3289 55.46 28.4298 55.339C29.3633 54.2183 30.152 53.0096 30.7464 51.6743C31.3057 50.4178 31.8826 49.1692 32.4454 47.9143C32.6405 47.4794 32.7904 47.0224 33.0099 46.6011C33.165 46.3033 33.1294 46.0587 32.9962 45.7793C32.8469 45.466 32.716 45.1422 32.6004 44.8147C32.2871 43.9264 31.9027 43.0522 31.7003 42.1384C31.4231 40.8864 31.0549 39.676 30.5419 38.5052C30.5097 38.4317 30.4535 38.3557 30.4564 38.2828C30.4626 38.1339 30.4705 37.9677 30.5425 37.8475C30.5707 37.8003 30.7996 37.815 30.8916 37.8733C31.7885 38.4415 32.7091 38.9804 33.5553 39.6176C34.2839 40.166 34.8746 40.9018 35.6175 41.4255C36.3811 41.9641 37.0926 42.6078 37.9923 42.9367C38.18 43.0053 38.3843 43.0404 38.5839 43.0586C38.6658 43.0661 38.8014 43.0116 38.835 42.9457C39.6618 41.3224 40.5844 39.7562 41.5604 38.2181C42.2846 37.0767 42.9512 35.8989 43.6475 34.7398C43.7241 34.6123 43.8116 34.4812 43.9247 34.3899C43.9887 34.3381 44.1868 34.3285 44.2023 34.36C44.3368 34.6332 44.5614 34.93 44.5384 35.2011C44.4211 36.5847 44.207 37.9598 44.1692 39.3513C44.1445 40.2551 43.8043 41.0859 43.5754 41.943C43.4314 42.4821 43.2662 43.022 43.195 43.5724C43.1057 44.2633 43.3455 44.5087 44.0208 44.7478C44.4067 44.8845 44.7544 45.1281 45.1208 45.3205C45.5345 45.5377 45.9528 45.7459 46.3638 45.968C46.9986 46.3108 47.6228 46.6733 48.2632 47.0051C48.5946 47.1766 48.9467 47.3115 49.2981 47.4391C49.4459 47.4929 49.7203 47.3762 49.688 47.6489C49.6606 47.8819 49.5557 48.1415 49.4005 48.3125C49.2707 48.4554 49.0235 48.5055 48.819 48.5635C48.5021 48.6532 48.1606 48.6737 47.8587 48.7959C46.9207 49.1757 45.963 49.4626 44.9627 49.6345C44.4324 49.7258 43.9257 49.9479 43.4008 50.0811C43.0291 50.1753 42.8717 50.4556 42.837 50.7643C42.7386 51.6417 42.6418 52.5075 42.362 53.3596C42.0453 54.3249 41.851 55.33 41.5931 56.315C41.4372 56.9099 41.2292 57.4933 41.1114 58.0949C41.0669 58.3223 41.2276 58.5841 41.2608 58.8347C41.2799 58.9778 41.2304 59.13 41.2118 59.2781C41.0995 59.2337 40.9848 59.194 40.8755 59.1434C40.7964 59.1067 40.7224 59.0145 40.6493 59.0178C40.3604 59.0307 40.3682 58.882 40.2885 58.6444C40.1773 58.3133 39.8352 58.0656 39.6218 57.7614C39.3606 57.3889 39.1303 56.9948 38.8341 56.5881ZM31.3314 52.3277C30.8629 53.0803 30.5199 53.911 29.9064 54.5752C29.8217 54.6668 29.8507 54.8635 29.827 55.0117C29.9382 54.9482 30.0475 54.8813 30.161 54.8223C30.2773 54.7621 30.3924 54.6889 30.5171 54.6574C31.2078 54.483 31.9063 54.3379 32.5926 54.1481C33.6116 53.8662 34.6181 53.5383 35.6396 53.2664C35.9691 53.1787 36.3286 53.1981 36.675 53.1814C37.0527 53.1633 37.268 53.3365 37.4526 53.6896C37.7547 54.268 38.1321 54.8117 38.5173 55.3412C39.0737 56.1061 39.6667 56.8441 40.2413 57.5958C40.4417 57.8581 40.5955 57.8614 40.6969 57.5584C40.9342 56.849 41.1537 56.1339 41.3549 55.4135C41.6496 54.3563 41.9606 53.3011 42.1889 52.2289C42.3328 51.5538 42.3511 50.8501 42.4009 50.1575C42.4309 49.74 42.6145 49.3798 43.0199 49.4045C43.3436 49.4241 43.566 49.2446 43.8384 49.2233C44.5616 49.1669 45.1932 48.7966 45.9107 48.6837C46.6986 48.5598 47.4504 48.205 48.2155 47.9436C48.2772 47.9224 48.32 47.8457 48.3715 47.7948L48.2235 47.7326C48.0757 47.6705 47.9171 47.6258 47.7814 47.5435C46.4464 46.7334 45.098 45.9512 43.6176 45.4265C43.2639 45.3012 42.8393 45.2437 42.5832 45.0076C42.2324 44.684 42.5936 44.2333 42.6213 43.8435C42.6818 42.9925 42.7854 42.1419 43.0791 41.3196C43.2538 40.8298 43.2915 40.2895 43.3756 39.7696C43.4752 39.1539 43.5723 38.5372 43.6444 37.9179C43.6956 37.4762 43.7176 37.0296 43.7231 36.5847C43.7248 36.4502 43.6279 36.3144 43.5761 36.1791C43.4684 36.2707 43.331 36.3432 43.2579 36.457C42.9007 37.0133 42.5508 37.5747 42.2171 38.1454C41.7381 38.9647 41.3151 39.8197 40.7951 40.6115C40.2167 41.492 39.7886 42.4366 39.3876 43.401C39.3235 43.5552 39.5204 43.9744 39.0556 43.7563C38.8317 43.6513 38.8448 44.1108 38.4983 43.9193C37.7583 43.51 36.8982 43.3193 36.3251 42.6182C36.2031 42.4688 35.9908 42.3958 35.8282 42.2766C34.9654 41.6445 34.0505 41.0636 33.3578 40.2402C32.9324 39.7344 32.3777 39.4578 31.8426 39.1336C31.6935 39.0433 31.4973 39.0658 31.5716 39.3168C31.9098 40.4581 32.2289 41.6073 32.6248 42.7289C32.9892 43.7615 33.443 44.7626 33.8573 45.7776C34.0705 46.2998 34.0682 46.2985 33.7525 46.8643C33.688 46.9817 33.636 47.1055 33.5974 47.2337C33.5072 47.5277 33.4809 47.8542 33.3356 48.1158C32.8494 48.9909 32.3718 49.8612 32.0689 50.8268C31.9152 51.3166 31.6113 51.7592 31.3314 52.3277ZM23.7496 45.3263C22.8341 45.3439 22.1836 45.7793 21.6322 46.4056C21.513 46.5411 20.4659 47.0095 20.2637 47.0659C20.0603 47.1226 19.872 47.2331 19.6689 47.2916C19.3025 47.3973 18.905 47.61 18.5659 47.5441C18.0876 47.4512 17.8694 47.5439 17.7557 47.9962C17.7409 48.055 17.6025 48.0828 17.5213 48.125C17.5298 48.0604 17.542 47.996 17.5461 47.9311C17.5557 47.7835 17.5281 47.6237 17.576 47.4905C17.6581 47.2621 17.6892 46.9727 18.0611 46.9945C19.5866 47.084 20.8053 46.4183 21.9206 45.4519C22.5891 44.8727 23.4159 44.6618 24.2794 44.822C25.4563 45.0404 26.6107 45.1747 27.7604 44.6986C27.8819 44.6483 28.0674 44.7528 28.2232 44.7853C28.1295 44.9007 28.0591 45.059 27.9382 45.1247C26.9058 45.6852 25.7973 45.598 24.6882 45.4731C24.3919 45.4398 24.0972 45.3903 23.7496 45.3263ZM19.5815 51.1446C20.8191 50.6393 21.9878 50.1773 23.1432 49.6837C23.6749 49.4567 24.2075 49.4028 24.7777 49.4426C25.5602 49.497 26.3511 49.5103 27.0741 49.1219C27.3407 48.9787 27.5853 48.795 27.8469 48.6418C27.9051 48.6077 27.9929 48.6242 28.067 48.6174C28.0452 48.6876 28.0271 48.7591 28.001 48.8277C27.7176 49.573 27.0299 49.7534 26.3776 49.8576C25.6758 49.9696 24.948 49.9153 24.2318 49.9418C24.0335 49.9491 23.8111 49.9342 23.6429 50.0171C22.9176 50.3743 22.1055 50.5201 21.4405 51.0484C21.1272 51.2971 20.6037 51.2635 20.202 51.4243C19.8759 51.5548 19.4658 51.5671 19.2662 51.9538C19.2474 51.9903 19.03 51.9363 18.9137 51.8975C18.8962 51.8917 18.9258 51.7375 18.9377 51.6525C18.984 51.3229 19.2701 51.2778 19.5815 51.1446ZM22.8536 54.4888C21.9637 55.3104 21.088 55.9696 19.8871 56.0617C19.5832 56.0849 19.2947 56.2935 18.9953 56.4064C18.9356 56.4288 18.8579 56.4037 18.7885 56.4005C18.8195 56.3266 18.8384 56.1975 18.8834 56.1877C19.2888 56.0991 19.4378 55.6624 19.9643 55.6097C20.7032 55.5358 21.4587 55.1548 22.0097 54.5735C22.7355 53.8078 23.6466 53.5711 24.6405 53.5982C25.1132 53.6111 25.5656 53.7027 26.0537 53.5845C26.2793 53.5298 26.4365 53.5443 26.6232 53.3417C26.8036 53.1462 27.1328 53.0761 27.408 52.9853C27.5223 52.9475 27.6659 52.9986 27.7963 53.0093C27.7366 53.1431 27.7102 53.3119 27.612 53.4051C26.853 54.1256 25.8881 54.2101 24.9272 54.1452C24.2202 54.0974 23.567 54.1777 22.8536 54.4888Z" fill="black"/>
<path d="M66.1097 71.8863C66.2839 70.8749 66.491 69.9188 66.6604 68.9559C66.6885 68.7967 66.6047 68.5254 66.4829 68.4491C66.0533 68.18 65.8273 67.6995 65.3077 67.4981C64.7754 67.2917 64.3219 66.8822 63.8343 66.5613C63.7709 66.5196 63.7129 66.4682 63.6458 66.4341C62.6636 65.9339 61.6684 65.4574 60.7028 64.9274C60.29 64.7007 59.9287 64.3744 59.5643 64.0692C59.4613 63.9829 59.4298 63.8112 59.3654 63.6788C59.5191 63.6168 59.6696 63.5104 59.8267 63.4997C61.2819 63.4007 62.7008 63.1363 64.0769 62.6438C65.3718 62.1804 66.6732 61.7352 67.9695 61.2754C68.4187 61.1161 68.8527 60.9089 69.309 60.7766C69.6314 60.6831 69.7837 60.4884 69.8938 60.1991C70.0172 59.8746 70.161 59.5564 70.3179 59.2466C70.7439 58.4065 71.1106 57.5247 71.6316 56.7472C72.3455 55.682 72.9665 54.5797 73.4588 53.4001C73.4897 53.326 73.5059 53.2328 73.5606 53.1846C73.6726 53.0862 73.7982 52.9771 73.9348 52.9462C73.9885 52.934 74.1359 53.1097 74.1573 53.2164C74.3658 54.2575 74.6121 55.2955 74.7358 56.3475C74.8424 57.2531 74.7183 58.1886 74.8527 59.0875C74.9907 60.0117 75.0166 60.9708 75.4002 61.8486C75.4802 62.0317 75.596 62.2037 75.7206 62.3606C75.7717 62.425 75.9049 62.4854 75.9757 62.4642C77.7206 61.9409 79.4905 61.5263 81.2769 61.1696C82.6025 60.905 83.9146 60.5736 85.2338 60.2765C85.3789 60.2438 85.5341 60.2166 85.6783 60.2353C85.7599 60.2458 85.9037 60.3824 85.8916 60.4153C85.7869 60.7013 85.7274 61.0688 85.5155 61.2394C84.4339 62.1102 83.2917 62.9052 82.2593 63.8389C81.5887 64.4453 80.7529 64.7732 79.975 65.1996C79.4857 65.4678 78.9812 65.7213 78.534 66.05C77.9726 66.4626 77.9608 66.8055 78.2543 67.459C78.4221 67.8324 78.486 68.2521 78.5999 68.65C78.7286 69.0992 78.867 69.5455 78.9903 69.9961C79.1808 70.6919 79.3498 71.3937 79.5523 72.0859C79.6571 72.444 79.8028 72.7918 79.9532 73.1342C80.0164 73.2781 80.2903 73.3959 80.0708 73.561C79.8834 73.702 79.6232 73.8055 79.3923 73.8114C79.1993 73.8162 78.9924 73.6721 78.8092 73.5643C78.5254 73.3971 78.2747 73.1642 77.9779 73.0303C77.0553 72.6143 76.1863 72.12 75.3712 71.5154C74.9388 71.1949 74.4283 70.9819 73.9694 70.6943C73.6445 70.4906 73.3332 70.5704 73.0859 70.7585C72.3835 71.2934 71.6905 71.8214 70.8811 72.2076C69.9643 72.6453 69.1033 73.199 68.2128 73.6928C67.6749 73.9911 67.1094 74.2436 66.593 74.5739C66.3978 74.6988 66.3195 74.9958 66.1612 75.1929C66.0709 75.3056 65.9267 75.3749 65.8067 75.4637C65.7612 75.3518 65.7108 75.2415 65.6718 75.1275C65.6438 75.045 65.6593 74.9277 65.6064 74.8771C65.3975 74.6772 65.5105 74.58 65.6273 74.3583C65.7899 74.0493 65.7327 73.6308 65.8054 73.2663C65.8943 72.8202 66.0202 72.3814 66.1097 71.8863ZM64.0084 63.5181C63.1407 63.6992 62.303 64.0249 61.399 64.04C61.2742 64.0421 61.152 64.1989 61.0285 64.2841C61.1512 64.3207 61.2751 64.3535 61.3961 64.3948C61.5199 64.4373 61.6524 64.47 61.7613 64.5384C62.3646 64.9174 62.9519 65.3224 63.5632 65.6875C64.4709 66.2297 65.4032 66.7311 66.3053 67.282C66.5963 67.4596 66.8306 67.733 67.0819 67.972C67.3559 68.2326 67.3794 68.508 67.2515 68.8853C67.0419 69.5033 66.9094 70.1517 66.7925 70.796C66.6238 71.7266 66.4996 72.6652 66.3529 73.6C66.3017 73.926 66.4055 74.0395 66.6947 73.9035C67.3716 73.5853 68.0403 73.25 68.7002 72.8979C69.6683 72.3809 70.6462 71.877 71.5792 71.3015C72.1667 70.9392 72.6883 70.4664 73.2236 70.024C73.5462 69.7574 73.9334 69.6413 74.1956 69.9515C74.405 70.1992 74.6884 70.236 74.892 70.4183C75.4323 70.9024 76.1363 71.1033 76.7135 71.5442C77.3473 72.0283 78.1232 72.327 78.8406 72.6997C78.8985 72.7297 78.9836 72.7076 79.056 72.7097L78.9988 72.5597C78.9416 72.4099 78.8644 72.2644 78.8302 72.1094C78.4939 70.5844 78.1281 69.0691 77.4851 67.6362C77.3314 67.2939 77.0797 66.9471 77.0736 66.5988C77.0652 66.1216 77.6407 66.0715 77.9416 65.8223C78.5989 65.2783 79.2855 64.7658 80.083 64.4101C80.5579 64.1982 80.9746 63.8523 81.4087 63.5539C81.9227 63.2008 82.4357 62.845 82.9334 62.4693C83.2882 62.2013 83.6263 61.9088 83.9518 61.6055C84.0503 61.5138 84.0816 61.3499 84.1436 61.219C84.003 61.2044 83.8557 61.1551 83.7228 61.1809C83.0739 61.3068 82.4262 61.4415 81.783 61.5944C80.8597 61.8138 79.9493 62.0985 79.0175 62.2694C77.9813 62.4593 77.0025 62.8022 76.0281 63.1783C75.8724 63.2384 75.7053 63.6704 75.5419 63.1836C75.4632 62.9492 75.1399 63.276 75.0391 62.8931C74.824 62.0753 74.3678 61.3216 74.479 60.4229C74.5027 60.2316 74.4089 60.0276 74.3828 59.8277C74.2439 58.7672 74.0321 57.7044 74.1491 56.6346C74.221 55.9777 74.0379 55.3855 73.9028 54.7746C73.8651 54.6045 73.7133 54.4781 73.5832 54.7053C72.9914 55.7382 72.3808 56.7626 71.8431 57.8236C71.3481 58.8003 70.9375 59.8199 70.4898 60.8206C70.2594 61.3354 70.2587 61.3329 69.6315 61.4954C69.5021 61.5298 69.3767 61.5777 69.2572 61.6383C68.9824 61.7762 68.7281 61.9827 68.4385 62.0583C67.4699 62.3112 66.5107 62.5669 65.6032 63.0148C65.1429 63.2419 64.6129 63.3279 64.0084 63.5181ZM63.8347 53.1996C63.1897 52.5497 62.4256 52.38 61.5918 52.4138C61.4115 52.4212 60.3495 51.9876 60.1691 51.8803C59.9876 51.7724 59.7776 51.7126 59.595 51.6061C59.2655 51.4141 58.8372 51.2736 58.6506 50.9829C58.3874 50.5728 58.1697 50.479 57.7641 50.7093C57.7113 50.7392 57.5956 50.6583 57.509 50.6287C57.5616 50.5902 57.6165 50.5546 57.6664 50.5127C57.7797 50.4177 57.8762 50.2873 58.0056 50.23C58.2275 50.1316 58.4583 49.9542 58.6994 50.2382C59.6883 51.4032 61.0114 51.8247 62.4806 51.9637C63.3612 52.047 64.0848 52.4993 64.5654 53.2344C65.2203 54.2363 65.9206 55.1638 67.0589 55.6664C67.1792 55.7195 67.2318 55.9258 67.3159 56.061C67.1677 56.0729 67.0046 56.1313 66.8736 56.0893C65.7552 55.7298 65.0526 54.868 64.3769 53.9798C64.1963 53.7424 64.0286 53.4951 63.8347 53.1996ZM56.7484 54.2042C57.9686 54.7501 59.1099 55.2761 60.2649 55.7707C60.7963 55.9984 61.2031 56.3464 61.5682 56.7861C62.0693 57.3895 62.6059 57.9707 63.3862 58.2253C63.6739 58.3192 63.9757 58.3691 64.2672 58.4525C64.3321 58.471 64.3807 58.5459 64.4368 58.5949C64.371 58.6275 64.3068 58.6639 64.2392 58.6923C63.5045 59.0023 62.899 58.6295 62.3731 58.2297C61.8074 57.7997 61.344 57.2358 60.8301 56.7362C60.6879 56.5978 60.545 56.4268 60.3689 56.3624C59.6097 56.0846 58.9433 55.598 58.102 55.482C57.7057 55.4273 57.3684 55.0255 56.9747 54.8461C56.6551 54.7004 56.3629 54.4123 55.9455 54.535C55.9061 54.5466 55.7949 54.3521 55.7427 54.2412C55.7348 54.2246 55.8668 54.1394 55.9365 54.0894C56.2067 53.8952 56.437 54.071 56.7484 54.2042ZM56.59 58.8801C55.3812 58.8041 54.2997 58.6262 53.4037 57.8213C53.1769 57.6176 52.8269 57.5531 52.5385 57.4145C52.481 57.3869 52.4455 57.3133 52.3999 57.2609C52.4747 57.2324 52.5812 57.1569 52.6193 57.1826C52.9634 57.4145 53.3822 57.2206 53.7838 57.565C54.3476 58.0483 55.145 58.3315 55.946 58.3285C57.001 58.3244 57.8014 58.8198 58.4683 59.5572C58.7855 59.908 59.0317 60.2984 59.4543 60.5697C59.6497 60.6951 59.7478 60.8187 60.0232 60.8139C60.2893 60.8092 60.5673 60.9989 60.8231 61.1352C60.9293 61.1917 60.9916 61.3309 61.0739 61.4325C60.9359 61.4818 60.7956 61.5793 60.6604 61.5726C59.6151 61.5214 58.8875 60.8821 58.2708 60.1423C57.817 59.5981 57.3077 59.1812 56.59 58.8801Z" fill="black"/>
<path d="M80.0524 103.97C80.8441 103.317 81.6247 102.727 82.3811 102.108C82.5062 102.006 82.6197 101.745 82.5771 101.608C82.427 101.124 82.569 100.612 82.3065 100.121C82.0376 99.617 81.961 99.0108 81.8006 98.4494C81.7798 98.3765 81.7694 98.2997 81.7408 98.2301C81.3224 97.2103 80.8789 96.2001 80.4926 95.1684C80.3275 94.7274 80.2665 94.2444 80.1893 93.7754C80.1675 93.6428 80.2556 93.4921 80.2932 93.3498C80.4501 93.403 80.6336 93.4205 80.7597 93.5149C81.9273 94.3889 83.1753 95.1139 84.5396 95.6382C85.8235 96.1315 87.1003 96.6427 88.3828 97.1397C88.8272 97.3119 89.2914 97.4379 89.7235 97.6352C90.0289 97.7747 90.2714 97.7264 90.5435 97.5789C90.8487 97.4135 91.1652 97.266 91.4862 97.1336C92.3571 96.7745 93.2101 96.3453 94.1122 96.0958C95.3481 95.7539 96.5378 95.3234 97.6803 94.7503C97.7521 94.7143 97.8251 94.6542 97.8981 94.6534C98.0471 94.6518 98.2135 94.6511 98.3372 94.7167C98.3858 94.7425 98.383 94.9718 98.3296 95.0667C97.8087 95.9918 97.3183 96.9393 96.7259 97.8174C96.2161 98.5734 95.512 99.2016 95.0275 99.9706C94.5293 100.761 93.9234 101.505 93.6416 102.421C93.5828 102.612 93.5584 102.818 93.5506 103.018C93.5473 103.1 93.6089 103.233 93.6764 103.263C95.3404 104.004 96.9524 104.844 98.5391 105.739C99.7166 106.403 100.927 107.008 102.121 107.643C102.252 107.713 102.388 107.793 102.485 107.901C102.54 107.963 102.56 108.16 102.529 108.177C102.263 108.326 101.979 108.565 101.707 108.556C100.319 108.511 98.9344 108.369 97.5429 108.403C96.639 108.425 95.7916 108.129 94.9238 107.945C94.378 107.829 93.8302 107.692 93.2768 107.649C92.5822 107.596 92.3497 107.848 92.1459 108.535C92.0295 108.928 91.8042 109.287 91.6311 109.663C91.4356 110.088 91.2494 110.516 91.049 110.938C90.7396 111.59 90.41 112.232 90.1119 112.889C89.9578 113.229 89.8414 113.587 89.7322 113.945C89.6862 114.095 89.817 114.363 89.5429 114.345C89.3089 114.33 89.0441 114.239 88.8653 114.093C88.7159 113.97 88.653 113.726 88.5845 113.525C88.4784 113.213 88.4402 112.873 88.3025 112.578C87.8745 111.661 87.5383 110.719 87.3147 109.729C87.196 109.205 86.9479 108.71 86.7876 108.193C86.6742 107.826 86.3862 107.684 86.0761 107.665C85.1947 107.612 84.3251 107.561 83.4596 107.326C82.4792 107.059 81.4654 106.918 80.4683 106.711C79.8661 106.586 79.2727 106.409 78.6658 106.323C78.4364 106.29 78.1833 106.464 77.9348 106.51C77.7928 106.537 77.6383 106.495 77.4894 106.484C77.5279 106.37 77.5616 106.253 77.6065 106.141C77.639 106.06 77.7273 105.982 77.7202 105.909C77.6922 105.621 77.8412 105.621 78.0743 105.529C78.3992 105.401 78.6288 105.047 78.9216 104.818C79.2799 104.537 79.6616 104.287 80.0524 103.97ZM83.9175 96.2562C83.1416 95.8275 82.2942 95.528 81.5991 94.9498C81.5032 94.8701 81.3082 94.9092 81.1591 94.8933C81.2282 95.001 81.3007 95.1067 81.3655 95.2169C81.4316 95.33 81.5107 95.4411 81.5487 95.564C81.7587 96.2448 81.9398 96.9348 82.1651 97.6103C82.4994 98.6133 82.8791 99.6014 83.2037 100.607C83.3084 100.932 83.3077 101.292 83.3423 101.637C83.38 102.013 83.2182 102.237 82.8752 102.44C82.3132 102.772 81.7899 103.177 81.2811 103.589C80.5462 104.184 79.8399 104.815 79.119 105.428C78.8675 105.641 78.8722 105.795 79.1801 105.881C79.9008 106.081 80.6264 106.263 81.3563 106.426C82.4273 106.666 83.4972 106.922 84.5798 107.094C85.2614 107.203 85.9651 107.184 86.6595 107.198C87.0779 107.207 87.4471 107.371 87.4436 107.777C87.4408 108.102 87.6316 108.314 87.667 108.585C87.7608 109.305 88.1634 109.916 88.3134 110.627C88.4781 111.407 88.8714 112.14 89.1722 112.89C89.1965 112.951 89.2754 112.989 89.3289 113.038L89.3834 112.887C89.4377 112.736 89.4741 112.576 89.5493 112.436C90.289 111.06 91 109.673 91.4472 108.168C91.554 107.808 91.5894 107.381 91.8119 107.113C92.1168 106.746 92.5857 107.083 92.9763 107.091C93.8294 107.107 94.6841 107.166 95.5206 107.417C96.0188 107.566 96.5603 107.575 97.084 107.632C97.704 107.7 98.3249 107.765 98.9471 107.805C99.3908 107.833 99.838 107.832 100.283 107.814C100.417 107.809 100.548 107.705 100.68 107.646C100.583 107.543 100.503 107.41 100.386 107.343C99.8118 107.015 99.2331 106.695 98.6458 106.391C97.8028 105.955 96.927 105.577 96.1092 105.099C95.1998 104.567 94.2343 104.189 93.2503 103.838C93.0931 103.782 92.6847 104.001 92.8784 103.525C92.9716 103.296 92.5133 103.333 92.6867 102.977C93.057 102.217 93.2028 101.348 93.8732 100.739C94.016 100.61 94.0779 100.394 94.1885 100.225C94.7749 99.3308 95.3075 98.387 96.0939 97.6524C96.5769 97.2013 96.8244 96.633 97.1204 96.0818C97.2028 95.9283 97.1701 95.7335 96.9234 95.8208C95.8011 96.2178 94.67 96.5961 93.5705 97.0496C92.5582 97.4672 91.582 97.9723 90.5899 98.4388C90.0795 98.6788 90.0806 98.6764 89.4992 98.3905C89.3787 98.3322 89.2523 98.2867 89.1223 98.2547C88.824 98.18 88.4966 98.1706 88.2278 98.0391C87.3286 97.599 86.4347 97.1672 85.4547 96.9148C84.9576 96.7868 84.4997 96.5063 83.9175 96.2562ZM90.5159 88.3212C90.4508 87.4079 89.9822 86.7809 89.3281 86.2627C89.1866 86.1507 88.6645 85.1294 88.5977 84.9304C88.5304 84.7302 88.4103 84.5479 88.3414 84.3481C88.2168 83.9877 87.9837 83.6018 88.0319 83.2597C88.0999 82.7772 87.996 82.5641 87.5384 82.4741C87.4789 82.4623 87.444 82.3255 87.3976 82.2466C87.4626 82.2518 87.5275 82.2606 87.5925 82.2614C87.7404 82.2633 87.8986 82.2274 88.0341 82.2683C88.2664 82.3385 88.5571 82.3545 88.5546 82.727C88.5444 84.2551 89.2725 85.4376 90.2955 86.5012C90.9086 87.1388 91.1622 87.9535 91.047 88.8242C90.89 90.0108 90.8158 91.1706 91.351 92.2941C91.4075 92.4128 91.3128 92.6035 91.2884 92.7608C91.1683 92.6731 91.0065 92.611 90.9347 92.4937C90.3213 91.4918 90.3509 90.3803 90.418 89.2662C90.4359 88.9686 90.47 88.6717 90.5159 88.3212ZM84.489 84.4608C85.0579 85.6705 85.58 86.8137 86.1329 87.9419C86.3872 88.461 86.4686 88.9902 86.4585 89.5616C86.4448 90.3459 86.4726 91.1364 86.898 91.8383C87.0548 92.0971 87.251 92.3318 87.4176 92.5852C87.4547 92.6415 87.4427 92.73 87.4533 92.8037C87.3821 92.7855 87.3097 92.7712 87.2399 92.7487C86.4809 92.5044 86.265 91.8269 86.1272 91.1809C85.9788 90.4859 85.9953 89.7562 85.9316 89.0424C85.9141 88.8447 85.9173 88.6219 85.8258 88.4582C85.4315 87.7525 85.2438 86.949 84.6817 86.3124C84.417 86.0124 84.4233 85.4878 84.2419 85.095C84.0947 84.7761 84.0611 84.3672 83.6646 84.1879C83.6271 84.1711 83.6698 83.9511 83.7025 83.833C83.7074 83.8152 83.8629 83.8368 83.9484 83.8443C84.2799 83.8733 84.3398 84.1568 84.489 84.4608ZM81.3192 87.9021C80.4525 87.056 79.7487 86.2157 79.5945 85.0212C79.5554 84.7189 79.3322 84.4417 79.2039 84.1485C79.1784 84.0901 79.1995 84.0112 79.1991 83.9417C79.2744 83.9689 79.4043 83.9811 79.4165 84.0255C79.526 84.4257 79.9699 84.5519 80.0498 85.0749C80.162 85.8089 80.5817 86.5437 81.1908 87.0638C81.9931 87.7489 82.2768 88.6464 82.3013 89.6404C82.313 90.1131 82.245 90.5696 82.3884 91.051C82.4547 91.2734 82.4484 91.4311 82.6604 91.6071C82.8651 91.7771 82.9521 92.1022 83.0571 92.3723C83.1008 92.4845 83.0572 92.6306 83.0533 92.7613C82.9166 92.7087 82.7467 92.6911 82.6485 92.5978C81.8896 91.8772 81.755 90.9181 81.77 89.9551C81.781 89.2466 81.6669 88.5984 81.3192 87.9021Z" fill="black"/>
</svg>
