<svg width="50" height="53" viewBox="0 0 50 53" fill="none" xmlns="http://www.w3.org/2000/svg">
<path fill-rule="evenodd" clip-rule="evenodd" d="M5.06985 14.5979L5.15727 14.2483L5.24468 13.8112L9.09083 0L49.9999 0.0874126L4.80762 36.8881L25.437 11.9755H9.96496L9.09083 12.0629C7.25517 12.1503 5.59433 13.2867 5.06985 14.5979Z" fill="#808285"/>
<path fill-rule="evenodd" clip-rule="evenodd" d="M47.8145 25.2622C47.8145 25.0874 46.5033 33.042 44.318 41.2587L1.57324 41.521L47.7271 4.1958L27.0103 29.2832H42.5697L43.4439 29.1958C45.2795 29.1084 47.2026 26.5734 47.8145 25.2622Z" fill="#808285"/>
<path fill-rule="evenodd" clip-rule="evenodd" d="M7.25524 52.9721H0L4.98252 46.1539H1.66084L1.92308 44.2308H8.82867L3.84615 51.049H7.51748L7.25524 52.9721ZM8.65385 52.9721L9.79021 44.2308H14.7727L14.5105 46.1539H11.7133L11.5385 47.6399H14.1608L13.986 49.563H11.2762L11.1014 51.049H13.8986L13.6364 52.9721H8.65385ZM15.1224 52.9721L16.2587 44.2308H18.4441L20.979 48.7763L21.1538 49.3007L21.5035 50.2623C21.5087 49.7077 21.5378 49.1535 21.5909 48.6014L22.1154 44.2308H24.3007L23.1643 52.9721H21.0664L18.5315 48.514L18.2692 47.9021L17.9196 46.9406C17.9151 47.5243 17.8859 48.1076 17.8322 48.6888L17.3077 52.9721H15.1224ZM25 52.9721L26.1364 44.2308H28.4091L27.2727 52.9721H25ZM30.2448 52.9721L31.1189 46.3287H29.2832L29.5455 44.2308H35.4895L35.2273 46.3287H33.3916L32.5175 52.9721H30.2448ZM35.4021 52.9721L36.5385 44.2308H38.8112L38.3741 47.6399H41.3462L41.7832 44.2308H44.0559L42.9196 52.9721H40.6469L41.0839 49.3881H38.1119L37.6748 52.9721H35.4021Z" fill="#808285"/>
</svg>
