<svg width="86" height="23" viewBox="0 0 86 23" fill="none" xmlns="http://www.w3.org/2000/svg">
<path d="M11.544 18L10.128 13.224H4.248L2.832 18H0.744L5.88 1.248H8.544L13.68 18H11.544ZM7.296 3.384H7.08L4.728 11.472H9.648L7.296 3.384ZM16.7426 18V5.616H18.6626V7.632H18.7586C18.8866 7.328 19.0466 7.04 19.2386 6.768C19.4306 6.48 19.6626 6.232 19.9346 6.024C20.2226 5.816 20.5586 5.648 20.9426 5.52C21.3266 5.392 21.7746 5.328 22.2866 5.328C23.5826 5.328 24.6226 5.744 25.4066 6.576C26.1906 7.392 26.5826 8.552 26.5826 10.056V18H24.6626V10.392C24.6626 9.256 24.4146 8.416 23.9186 7.872C23.4226 7.312 22.6946 7.032 21.7346 7.032C21.3506 7.032 20.9746 7.08 20.6066 7.176C20.2386 7.272 19.9106 7.416 19.6226 7.608C19.3346 7.8 19.1026 8.048 18.9266 8.352C18.7506 8.656 18.6626 9.008 18.6626 9.408V18H16.7426ZM39.9893 5.616H41.9093L35.7653 20.712C35.6213 21.064 35.4613 21.368 35.2853 21.624C35.1093 21.896 34.9013 22.112 34.6613 22.272C34.4213 22.448 34.1333 22.576 33.7973 22.656C33.4613 22.752 33.0613 22.8 32.5973 22.8H30.7733V21.168H33.6533L35.0453 17.76L30.0533 5.616H32.0213L34.1093 10.8L35.9573 15.504H36.0533L37.9013 10.8L39.9893 5.616ZM43.8919 5.616H45.5959L47.0119 16.32H47.2279L49.3399 5.616H51.4519L53.5639 16.32H53.7799L55.1959 5.616H56.8519L54.9559 18H52.4599L50.4919 7.632H50.2999L48.2839 18H45.7879L43.8919 5.616ZM59.4105 16.368H63.0345V7.248H59.4105V5.616H64.9545V8.736H65.0745C65.3305 7.76 65.8105 7 66.5145 6.456C67.2345 5.896 68.1465 5.616 69.2505 5.616H70.9785V7.536H68.6505C67.5465 7.536 66.6505 7.856 65.9625 8.496C65.2905 9.136 64.9545 9.976 64.9545 11.016V16.368H69.7545V18H59.4105V16.368ZM74.4731 0.24H76.3931V11.448H76.4891L78.6491 9.408L82.7771 5.616H85.1291L79.9931 10.464L85.7291 18H83.3531L78.5291 11.568L76.3931 13.512V18H74.4731V0.24Z" fill="#131212"/>
</svg>
