<svg width="219" height="53" viewBox="0 0 219 53" fill="none" xmlns="http://www.w3.org/2000/svg">
<rect x="1" y="1" width="217" height="50.8594" rx="8.47656" fill="white" stroke="#2246A1" stroke-opacity="0.5" stroke-width="0.339063"/>
<path d="M102.41 32.4102C105.834 32.4102 108.138 30.0742 108.138 26.6342C108.138 23.1782 105.802 20.8422 102.346 20.8422H98.5862V32.4102H102.41ZM102.234 22.2822C104.874 22.2822 106.506 23.9462 106.506 26.6342C106.506 29.2902 104.874 30.9542 102.298 30.9542H100.154V22.2822H102.234ZM109.365 28.4902C109.365 30.9062 111.093 32.6022 113.445 32.6022C115.781 32.6022 117.509 30.9062 117.509 28.4902C117.509 26.0742 115.781 24.3782 113.445 24.3782C111.093 24.3782 109.365 26.0742 109.365 28.4902ZM110.885 28.4902C110.885 26.8582 111.925 25.7222 113.445 25.7222C114.949 25.7222 116.005 26.8582 116.005 28.4902C116.005 30.1222 114.949 31.2582 113.445 31.2582C111.925 31.2582 110.885 30.1222 110.885 28.4902ZM120.495 32.4102H121.983L123.343 28.2342C123.631 27.2902 123.775 26.7782 123.855 26.3942C123.935 26.8262 124.095 27.4342 124.351 28.2182L125.711 32.4102H127.135L129.807 24.5862H128.239L126.927 28.6502C126.703 29.3382 126.559 29.8822 126.431 30.5062C126.303 29.9462 126.047 29.0342 125.919 28.6502L124.623 24.5862H123.087L121.775 28.6502C121.599 29.1622 121.391 29.8182 121.263 30.5062C121.119 29.8182 120.959 29.2262 120.783 28.6502L119.487 24.5862H117.935L120.495 32.4102ZM132.6 32.4102V28.2662C132.6 26.7462 133.416 25.7382 134.824 25.7382C135.976 25.7382 136.712 26.3782 136.712 27.9622V32.4102H138.216V27.6262C138.216 25.6262 137.272 24.3622 135.208 24.3622C134.104 24.3622 133.112 24.8902 132.616 25.7862L132.456 24.5862H131.096V32.4102H132.6ZM141.835 32.4102V20.6342H140.331V32.4102H141.835ZM143.537 28.4902C143.537 30.9062 145.265 32.6022 147.617 32.6022C149.953 32.6022 151.681 30.9062 151.681 28.4902C151.681 26.0742 149.953 24.3782 147.617 24.3782C145.265 24.3782 143.537 26.0742 143.537 28.4902ZM145.057 28.4902C145.057 26.8582 146.097 25.7222 147.617 25.7222C149.121 25.7222 150.177 26.8582 150.177 28.4902C150.177 30.1222 149.121 31.2582 147.617 31.2582C146.097 31.2582 145.057 30.1222 145.057 28.4902ZM155.634 32.6022C156.898 32.6022 157.97 32.0422 158.37 31.1462L158.53 32.4102H159.81V27.4982C159.81 25.3862 158.498 24.3622 156.562 24.3622C154.546 24.3622 153.202 25.4342 153.202 27.0662H154.514C154.514 26.1222 155.234 25.5622 156.498 25.5622C157.554 25.5622 158.338 26.0262 158.338 27.3382V27.5622L155.874 27.7542C154.034 27.8982 152.962 28.7942 152.962 30.2342C152.962 31.6582 153.954 32.6022 155.634 32.6022ZM156.066 31.4342C155.09 31.4342 154.482 31.0182 154.482 30.1862C154.482 29.4182 155.026 28.9062 156.354 28.7782L158.354 28.6182V29.0342C158.354 30.5062 157.49 31.4342 156.066 31.4342ZM165.029 32.6022C166.277 32.6022 167.333 32.0582 167.845 30.9862L167.973 32.4102H169.317V20.6342H167.829V25.8502C167.301 24.8902 166.293 24.3622 165.093 24.3622C162.773 24.3622 161.381 26.1222 161.381 28.5222C161.381 30.9062 162.757 32.6022 165.029 32.6022ZM165.333 31.2422C163.797 31.2422 162.901 30.0902 162.901 28.4742C162.901 26.8742 163.797 25.7222 165.333 25.7222C166.869 25.7222 167.813 26.8742 167.813 28.4742C167.813 30.1062 166.869 31.2422 165.333 31.2422ZM176.597 32.4102L177.621 29.5302H182.485L183.525 32.4102H185.173L180.933 20.8422H179.189L174.965 32.4102H176.597ZM179.861 23.3382C179.941 23.0982 180.021 22.8262 180.053 22.6662C180.085 22.8422 180.165 23.1142 180.245 23.3382L182.021 28.1702H178.101L179.861 23.3382ZM186.455 35.9142H187.959V31.1302C188.471 32.0902 189.511 32.6182 190.759 32.6182C193.079 32.6182 194.391 30.8262 194.391 28.4422C194.391 26.0422 192.999 24.3622 190.759 24.3622C189.511 24.3622 188.455 24.9222 187.927 25.9942L187.815 24.5862H186.455V35.9142ZM187.975 28.5062C187.975 26.8742 188.903 25.7382 190.439 25.7382C191.975 25.7382 192.887 26.8902 192.887 28.5062C192.887 30.1062 191.975 31.2582 190.439 31.2582C188.903 31.2582 187.975 30.1062 187.975 28.5062ZM196.049 35.9142H197.553V31.1302C198.065 32.0902 199.105 32.6182 200.353 32.6182C202.673 32.6182 203.985 30.8262 203.985 28.4422C203.985 26.0422 202.593 24.3622 200.353 24.3622C199.105 24.3622 198.049 24.9222 197.521 25.9942L197.409 24.5862H196.049V35.9142ZM197.569 28.5062C197.569 26.8742 198.497 25.7382 200.033 25.7382C201.569 25.7382 202.481 26.8902 202.481 28.5062C202.481 30.1062 201.569 31.2582 200.033 31.2582C198.497 31.2582 197.569 30.1062 197.569 28.5062Z" fill="black"/>
<path d="M33.7441 35.6822C32.6416 36.7509 31.4378 36.5822 30.2791 36.0759C29.0528 35.5584 27.9278 35.5359 26.6341 36.0759C25.0141 36.7734 24.1591 36.5709 23.1916 35.6822C17.7016 30.0234 18.5116 21.4059 24.7441 21.0909C26.2628 21.1697 27.3203 21.9234 28.2091 21.9909C29.5366 21.7209 30.8078 20.9447 32.2253 21.0459C33.9241 21.1809 35.2066 21.8559 36.0503 23.0709C32.5403 25.1747 33.3728 29.7984 36.5903 31.0922C35.9491 32.7797 35.1166 34.4559 33.7328 35.6934L33.7441 35.6822ZM28.0966 21.0234C27.9278 18.5147 29.9641 16.4447 32.3041 16.2422C32.6303 19.1447 29.6716 21.3047 28.0966 21.0234Z" fill="black"/>
<path d="M64.0938 17.9665V34.8532C64.0939 34.8898 64.1048 34.9256 64.1252 34.9561C64.1455 34.9865 64.1744 35.0103 64.2083 35.0244C64.2421 35.0385 64.2793 35.0423 64.3153 35.0353C64.3512 35.0283 64.3843 35.0108 64.4104 34.9851L73.2031 26.4103L64.4104 17.8346C64.3843 17.8089 64.3512 17.7914 64.3153 17.7844C64.2793 17.7774 64.2421 17.7812 64.2083 17.7953C64.1744 17.8094 64.1455 17.8332 64.1252 17.8636C64.1048 17.8941 64.0939 17.9299 64.0938 17.9665ZM76.8898 22.8868L65.8649 16.8128L65.858 16.8089C65.6681 16.7058 65.4877 16.9627 65.6432 17.1123L74.2855 25.376L76.8898 22.8868ZM65.6441 35.7083C65.4877 35.8578 65.6681 36.1148 65.8589 36.0117L65.8658 36.0078L76.8898 29.9337L74.2855 27.4437L65.6441 35.7083ZM81.3405 25.3361L78.2618 23.6405L75.367 26.4103L78.2618 29.1788L81.3405 27.4845C82.178 27.0217 82.178 25.7988 81.3405 25.3361Z" fill="black"/>
<line x1="51.4355" y1="41.6875" x2="51.4355" y2="11.9964" stroke="black" stroke-opacity="0.05" stroke-width="0.847656"/>
</svg>
