<svg width="258" height="62" viewBox="0 0 258 62" fill="none" xmlns="http://www.w3.org/2000/svg">
<rect x="1" y="1" width="256" height="60" rx="10" fill="white" stroke="#2246A1" stroke-opacity="0.5" stroke-width="0.4"/>
<path d="M117.1 39C121.4 39 124.26 36.12 124.26 31.84C124.26 27.56 121.38 24.68 117.06 24.68H112.74V39H117.1ZM117 26C120.54 26 122.78 28.26 122.78 31.84C122.78 35.4 120.54 37.68 117.04 37.68H114.18V26H117ZM125.881 34.16C125.881 37.1 127.961 39.24 130.801 39.24C133.641 39.24 135.721 37.1 135.721 34.16C135.721 31.2 133.641 29.06 130.801 29.06C127.961 29.06 125.881 31.2 125.881 34.16ZM127.281 34.14C127.281 31.9 128.721 30.3 130.801 30.3C132.861 30.3 134.321 31.9 134.321 34.14C134.321 36.42 132.861 38 130.801 38C128.721 38 127.281 36.42 127.281 34.14ZM139.539 39H140.919L142.919 32.92C143.179 32.12 143.339 31.54 143.479 31.02C143.599 31.6 143.759 32.2 143.999 32.92L145.999 39H147.339L150.619 29.32H149.179L147.259 35.16C146.919 36.2 146.879 36.44 146.679 37.24C146.499 36.52 146.259 35.68 146.079 35.16L144.179 29.32H142.759L140.839 35.16C140.739 35.48 140.419 36.46 140.259 37.24C140.059 36.46 139.879 35.8 139.659 35.16L137.759 29.32H136.339L139.539 39ZM153.722 39V33.94C153.722 31.76 154.842 30.32 156.822 30.32C158.422 30.32 159.442 31.12 159.442 33.38V39H160.822V33.08C160.822 30.64 159.722 29.06 157.062 29.06C155.662 29.06 154.382 29.76 153.742 31L153.542 29.32H152.342V39H153.722ZM165.013 39V24.42H163.633V39H165.013ZM167.268 34.16C167.268 37.1 169.348 39.24 172.188 39.24C175.028 39.24 177.108 37.1 177.108 34.16C177.108 31.2 175.028 29.06 172.188 29.06C169.348 29.06 167.268 31.2 167.268 34.16ZM168.668 34.14C168.668 31.9 170.108 30.3 172.188 30.3C174.248 30.3 175.708 31.9 175.708 34.14C175.708 36.42 174.248 38 172.188 38C170.108 38 168.668 36.42 168.668 34.14ZM182.095 39.24C183.735 39.24 185.055 38.52 185.655 37.3L185.835 39H186.995V32.74C186.995 30.18 185.355 29.06 183.115 29.06C180.735 29.06 179.135 30.32 179.135 32.28H180.395C180.395 30.98 181.395 30.22 183.075 30.22C184.495 30.22 185.635 30.82 185.635 32.72V33.04L182.435 33.3C180.175 33.48 178.815 34.6 178.815 36.38C178.815 38.08 180.035 39.24 182.095 39.24ZM182.415 38.12C181.095 38.12 180.215 37.52 180.215 36.34C180.215 35.26 180.955 34.46 182.775 34.3L185.635 34.08V34.6C185.635 36.7 184.455 38.12 182.415 38.12ZM193.564 39.24C195.184 39.24 196.544 38.52 197.224 37.02L197.364 39H198.564V24.42H197.184V31.16C196.504 29.76 195.224 29.06 193.624 29.06C190.744 29.06 189.084 31.26 189.084 34.18C189.084 37.08 190.744 39.24 193.564 39.24ZM193.804 37.98C191.704 37.98 190.484 36.38 190.484 34.14C190.484 31.92 191.704 30.3 193.804 30.3C195.924 30.3 197.164 31.92 197.164 34.14C197.164 36.38 195.924 37.98 193.804 37.98ZM209.771 39.24C211.411 39.24 212.731 38.52 213.331 37.3L213.511 39H214.671V32.74C214.671 30.18 213.031 29.06 210.791 29.06C208.411 29.06 206.811 30.32 206.811 32.28H208.071C208.071 30.98 209.071 30.22 210.751 30.22C212.171 30.22 213.311 30.82 213.311 32.72V33.04L210.111 33.3C207.851 33.48 206.491 34.6 206.491 36.38C206.491 38.08 207.711 39.24 209.771 39.24ZM210.091 38.12C208.771 38.12 207.891 37.52 207.891 36.34C207.891 35.26 208.631 34.46 210.451 34.3L213.311 34.08V34.6C213.311 36.7 212.131 38.12 210.091 38.12ZM217.44 43.22H218.82V37.14C219.5 38.54 220.8 39.24 222.44 39.24C225.3 39.24 226.92 37.04 226.92 34.12C226.92 31.2 225.24 29.06 222.44 29.06C220.82 29.06 219.46 29.78 218.78 31.28L218.64 29.32H217.44V43.22ZM218.84 34.16C218.84 31.92 220.08 30.32 222.2 30.32C224.3 30.32 225.52 31.92 225.52 34.16C225.52 36.38 224.3 38 222.2 38C220.08 38 218.84 36.38 218.84 34.16ZM229.12 43.22H230.5V37.14C231.18 38.54 232.48 39.24 234.12 39.24C236.98 39.24 238.6 37.04 238.6 34.12C238.6 31.2 236.92 29.06 234.12 29.06C232.5 29.06 231.14 29.78 230.46 31.28L230.32 29.32H229.12V43.22ZM230.52 34.16C230.52 31.92 231.76 30.32 233.88 30.32C235.98 30.32 237.2 31.92 237.2 34.16C237.2 36.38 235.98 38 233.88 38C231.76 38 230.52 36.38 230.52 34.16Z" fill="black"/>
<path d="M39.7332 42.04C38.4266 43.3067 36.9999 43.1067 35.6266 42.5067C34.1732 41.8933 32.8399 41.8667 31.3066 42.5067C29.3866 43.3333 28.3732 43.0933 27.2266 42.04C20.7199 35.3333 21.6799 25.12 29.0666 24.7467C30.8666 24.84 32.1199 25.7333 33.1732 25.8133C34.7466 25.4933 36.2532 24.5733 37.9332 24.6933C39.9466 24.8533 41.4666 25.6533 42.4666 27.0933C38.3066 29.5867 39.2932 35.0667 43.1066 36.6C42.3466 38.6 41.3599 40.5867 39.7199 42.0533L39.7332 42.04ZM33.0399 24.6667C32.8399 21.6933 35.2532 19.24 38.0266 19C38.4132 22.44 34.9066 25 33.0399 24.6667Z" fill="black"/>
<path d="M75.4375 21.0209V40.9779C75.4376 41.0212 75.4505 41.0635 75.4746 41.0995C75.4987 41.1355 75.5329 41.1636 75.5728 41.1802C75.6128 41.1969 75.6568 41.2013 75.6993 41.1931C75.7418 41.1848 75.7809 41.1642 75.8118 41.1338L86.2031 30.9999L75.8118 20.865C75.7809 20.8346 75.7418 20.814 75.6993 20.8057C75.6568 20.7975 75.6128 20.8019 75.5728 20.8186C75.5329 20.8352 75.4987 20.8633 75.4746 20.8993C75.4505 20.9353 75.4376 20.9776 75.4375 21.0209ZM90.5602 26.8358L77.5307 19.6574L77.5226 19.6528C77.2981 19.531 77.0848 19.8346 77.2687 20.0114L87.4823 29.7776L90.5602 26.8358ZM77.2697 41.9885C77.0848 42.1652 77.2981 42.4689 77.5236 42.347L77.5317 42.3424L90.5602 35.164L87.4823 32.2212L77.2697 41.9885ZM95.8201 29.7304L92.1816 27.7265L88.7605 30.9999L92.1816 34.2717L95.8201 32.2694C96.8098 31.7225 96.8098 30.2773 95.8201 29.7304Z" fill="black"/>
<line x1="60.5" y1="49" x2="60.5" y2="13.9727" stroke="black" stroke-opacity="0.05"/>
</svg>
