<svg width="182" height="43" viewBox="0 0 182 43" fill="none" xmlns="http://www.w3.org/2000/svg">
<rect opacity="0.3" width="182" height="42.6562" rx="7.10938" fill="#D9D9D9"/>
<path d="M82.4731 27.0859C85.4831 27.0859 87.4851 25.0699 87.4851 22.0739C87.4851 19.0779 85.4691 17.0619 82.4451 17.0619H79.4211V27.0859H82.4731ZM82.4031 17.9859C84.8811 17.9859 86.4491 19.5679 86.4491 22.0739C86.4491 24.5659 84.8811 26.1619 82.4311 26.1619H80.4291V17.9859H82.4031ZM88.6199 23.6979C88.6199 25.7559 90.0759 27.2539 92.0639 27.2539C94.0519 27.2539 95.5079 25.7559 95.5079 23.6979C95.5079 21.6259 94.0519 20.1279 92.0639 20.1279C90.0759 20.1279 88.6199 21.6259 88.6199 23.6979ZM89.5999 23.6839C89.5999 22.1159 90.6079 20.9959 92.0639 20.9959C93.5059 20.9959 94.5279 22.1159 94.5279 23.6839C94.5279 25.2799 93.5059 26.3859 92.0639 26.3859C90.6079 26.3859 89.5999 25.2799 89.5999 23.6839ZM98.1801 27.0859H99.1461L100.546 22.8299C100.728 22.2699 100.84 21.8639 100.938 21.4999C101.022 21.9059 101.134 22.3259 101.302 22.8299L102.702 27.0859H103.64L105.936 20.3099H104.928L103.584 24.3979C103.346 25.1259 103.318 25.2939 103.178 25.8539C103.052 25.3499 102.884 24.7619 102.758 24.3979L101.428 20.3099H100.434L99.0901 24.3979C99.0201 24.6219 98.7961 25.3079 98.6841 25.8539C98.5441 25.3079 98.4181 24.8459 98.2641 24.3979L96.9341 20.3099H95.9401L98.1801 27.0859ZM108.109 27.0859V23.5439C108.109 22.0179 108.893 21.0099 110.279 21.0099C111.399 21.0099 112.113 21.5699 112.113 23.1519V27.0859H113.079V22.9419C113.079 21.2339 112.309 20.1279 110.447 20.1279C109.467 20.1279 108.571 20.6179 108.123 21.4859L107.983 20.3099H107.143V27.0859H108.109ZM116.012 27.0859V16.8799H115.046V27.0859H116.012ZM117.591 23.6979C117.591 25.7559 119.047 27.2539 121.035 27.2539C123.023 27.2539 124.479 25.7559 124.479 23.6979C124.479 21.6259 123.023 20.1279 121.035 20.1279C119.047 20.1279 117.591 21.6259 117.591 23.6979ZM118.571 23.6839C118.571 22.1159 119.579 20.9959 121.035 20.9959C122.477 20.9959 123.499 22.1159 123.499 23.6839C123.499 25.2799 122.477 26.3859 121.035 26.3859C119.579 26.3859 118.571 25.2799 118.571 23.6839ZM127.97 27.2539C129.118 27.2539 130.042 26.7499 130.462 25.8959L130.588 27.0859H131.4V22.7039C131.4 20.9119 130.252 20.1279 128.684 20.1279C127.018 20.1279 125.898 21.0099 125.898 22.3819H126.78C126.78 21.4719 127.48 20.9399 128.656 20.9399C129.65 20.9399 130.448 21.3599 130.448 22.6899V22.9139L128.208 23.0959C126.626 23.2219 125.674 24.0059 125.674 25.2519C125.674 26.4419 126.528 27.2539 127.97 27.2539ZM128.194 26.4699C127.27 26.4699 126.654 26.0499 126.654 25.2239C126.654 24.4679 127.172 23.9079 128.446 23.7959L130.448 23.6419V24.0059C130.448 25.4759 129.622 26.4699 128.194 26.4699ZM135.998 27.2539C137.132 27.2539 138.084 26.7499 138.56 25.6999L138.658 27.0859H139.498V16.8799H138.532V21.5979C138.056 20.6179 137.16 20.1279 136.04 20.1279C134.024 20.1279 132.862 21.6679 132.862 23.7119C132.862 25.7419 134.024 27.2539 135.998 27.2539ZM136.166 26.3719C134.696 26.3719 133.842 25.2519 133.842 23.6839C133.842 22.1299 134.696 20.9959 136.166 20.9959C137.65 20.9959 138.518 22.1299 138.518 23.6839C138.518 25.2519 137.65 26.3719 136.166 26.3719ZM147.343 27.2539C148.491 27.2539 149.415 26.7499 149.835 25.8959L149.961 27.0859H150.773V22.7039C150.773 20.9119 149.625 20.1279 148.057 20.1279C146.391 20.1279 145.271 21.0099 145.271 22.3819H146.153C146.153 21.4719 146.853 20.9399 148.029 20.9399C149.023 20.9399 149.821 21.3599 149.821 22.6899V22.9139L147.581 23.0959C145.999 23.2219 145.047 24.0059 145.047 25.2519C145.047 26.4419 145.901 27.2539 147.343 27.2539ZM147.567 26.4699C146.643 26.4699 146.027 26.0499 146.027 25.2239C146.027 24.4679 146.545 23.9079 147.819 23.7959L149.821 23.6419V24.0059C149.821 25.4759 148.995 26.4699 147.567 26.4699ZM152.711 30.0399H153.677V25.7839C154.153 26.7639 155.063 27.2539 156.211 27.2539C158.213 27.2539 159.347 25.7139 159.347 23.6699C159.347 21.6259 158.171 20.1279 156.211 20.1279C155.077 20.1279 154.125 20.6319 153.649 21.6819L153.551 20.3099H152.711V30.0399ZM153.691 23.6979C153.691 22.1299 154.559 21.0099 156.043 21.0099C157.513 21.0099 158.367 22.1299 158.367 23.6979C158.367 25.2519 157.513 26.3859 156.043 26.3859C154.559 26.3859 153.691 25.2519 153.691 23.6979ZM160.887 30.0399H161.853V25.7839C162.329 26.7639 163.239 27.2539 164.387 27.2539C166.389 27.2539 167.523 25.7139 167.523 23.6699C167.523 21.6259 166.347 20.1279 164.387 20.1279C163.253 20.1279 162.301 20.6319 161.825 21.6819L161.727 20.3099H160.887V30.0399ZM161.867 23.6979C161.867 22.1299 162.735 21.0099 164.219 21.0099C165.689 21.0099 166.543 22.1299 166.543 23.6979C166.543 25.2519 165.689 26.3859 164.219 26.3859C162.735 26.3859 161.867 25.2519 161.867 23.6979Z" fill="#FAFAFA"/>
<path d="M27.0039 28.5431C26.1056 29.414 25.1247 29.2765 24.1806 28.864C23.1814 28.4423 22.2647 28.424 21.2106 28.864C19.8906 29.4323 19.1939 29.2673 18.4056 28.5431C13.9322 23.9323 14.5922 16.9106 19.6706 16.654C20.9081 16.7181 21.7697 17.3323 22.4939 17.3873C23.5756 17.1673 24.6114 16.5348 25.7664 16.6173C27.1506 16.7273 28.1956 17.2773 28.8831 18.2673C26.0231 19.9815 26.7014 23.749 29.3231 24.8031C28.8006 26.1781 28.1222 27.544 26.9947 28.5523L27.0039 28.5431ZM22.4022 16.599C22.2647 14.5548 23.9239 12.8681 25.8306 12.7031C26.0964 15.0681 23.6856 16.8281 22.4022 16.599Z" fill="#FAFAFA"/>
<path d="M52.875 14.1772V27.9936C52.8751 28.0236 52.884 28.0529 52.9007 28.0778C52.9174 28.1027 52.941 28.1222 52.9687 28.1337C52.9964 28.1452 53.0268 28.1483 53.0562 28.1426C53.0857 28.1369 53.1128 28.1226 53.1341 28.1016L60.3281 21.0858L53.1341 14.0693C53.1128 14.0483 53.0857 14.034 53.0562 14.0283C53.0268 14.0226 52.9964 14.0257 52.9687 14.0372C52.941 14.0487 52.9174 14.0682 52.9007 14.0931C52.884 14.118 52.8751 14.1473 52.875 14.1772ZM63.3445 18.203L54.3241 13.2333L54.3185 13.2301C54.1631 13.1458 54.0155 13.356 54.1427 13.4783L61.2137 20.2396L63.3445 18.203ZM54.1434 28.6933C54.0155 28.8156 54.1631 29.0258 54.3192 28.9415L54.3248 28.9383L63.3445 23.9686L61.2137 21.9313L54.1434 28.6933ZM66.986 20.2069L64.4671 18.8196L62.0986 21.0858L64.4671 23.3509L66.986 21.9647C67.6712 21.5861 67.6712 20.5855 66.986 20.2069Z" fill="white"/>
<line x1="42.3008" y1="34.125" x2="42.3008" y2="9.22281" stroke="white" stroke-opacity="0.3" stroke-width="0.710938"/>
</svg>
