<svg width="211" height="40" viewBox="0 0 211 40" fill="none" xmlns="http://www.w3.org/2000/svg">
<rect opacity="0.3" x="1" y="1" width="209" height="38" rx="19" fill="white" stroke="white"/>
<path d="M17.5753 26.0237V20.7437H23.7673V26.0237H24.9033V14.5677H23.7673V19.6717H17.5753V14.5677H16.4233V26.0237H17.5753ZM28.0085 16.1517C28.4565 16.1517 28.8405 15.7837 28.8405 15.3357C28.8405 14.8877 28.4565 14.5037 28.0085 14.5037C27.5605 14.5037 27.1925 14.8877 27.1925 15.3357C27.1925 15.7837 27.5605 16.1517 28.0085 16.1517ZM27.4645 26.0237H28.5685V18.2797H27.4645V26.0237ZM34.9188 18.1837C34.6468 18.1197 34.4388 18.1037 34.1988 18.1037C33.1108 18.1037 32.2948 18.6477 31.9908 19.4797L31.9108 18.2797H30.8708V26.0237H31.9748V21.6077C31.9748 20.1357 32.8868 19.1757 34.3108 19.1757H34.9188V18.1837ZM36.9304 16.1517C37.3784 16.1517 37.7624 15.7837 37.7624 15.3357C37.7624 14.8877 37.3784 14.5037 36.9304 14.5037C36.4824 14.5037 36.1144 14.8877 36.1144 15.3357C36.1144 15.7837 36.4824 16.1517 36.9304 16.1517ZM36.3864 26.0237H37.4904V18.2797H36.3864V26.0237ZM40.8966 26.0237V21.9757C40.8966 20.2317 41.7926 19.0797 43.3766 19.0797C44.6566 19.0797 45.4726 19.7197 45.4726 21.5277V26.0237H46.5766V21.2877C46.5766 19.3357 45.6966 18.0717 43.5686 18.0717C42.4486 18.0717 41.4246 18.6317 40.9126 19.6237L40.7526 18.2797H39.7926V26.0237H40.8966ZM48.249 21.9277C48.249 24.0397 49.593 25.7837 51.801 25.7837C53.129 25.7837 54.201 25.1437 54.729 24.0557V25.8957C54.729 27.5117 53.673 28.5837 52.089 28.5837C50.697 28.5837 49.737 27.8477 49.497 26.5997H48.393C48.697 28.4717 50.089 29.5917 52.073 29.5917C54.345 29.5917 55.817 28.0877 55.817 25.7837V18.2797H54.857L54.745 19.8317C54.249 18.6957 53.225 18.0717 51.881 18.0717C49.609 18.0717 48.249 19.8157 48.249 21.9277ZM49.353 21.9117C49.353 20.3437 50.313 19.0477 51.977 19.0477C53.673 19.0477 54.633 20.2637 54.633 21.9117C54.633 23.5757 53.641 24.7917 51.961 24.7917C50.329 24.7917 49.353 23.4957 49.353 21.9117Z" fill="white"/>
<path d="M77.8746 26.0237H78.9786L82.0506 16.2957L85.1226 26.0237H86.2106L89.6506 14.5677H88.4826L86.1146 22.4557C85.9866 22.8877 85.8426 23.4477 85.6666 24.3277C85.4906 23.5917 85.3306 23.0157 85.1546 22.4397L82.6586 14.5677H81.4586L78.9626 22.4397C78.7866 22.9997 78.6266 23.4957 78.4346 24.3277C78.2906 23.5757 78.1466 22.9997 77.9866 22.4397L75.6666 14.5677H74.4666L77.8746 26.0237ZM93.3922 26.2157C95.2162 26.2157 96.4162 25.3357 96.8322 23.7037H95.7762C95.4882 24.7277 94.6722 25.2717 93.4082 25.2717C91.7442 25.2717 90.7522 24.1837 90.6722 22.2957H96.8322V21.7517C96.8322 19.5597 95.4082 18.0717 93.3122 18.0717C91.1042 18.0717 89.6002 19.7357 89.6002 22.1517C89.6002 24.5837 91.1202 26.2157 93.3922 26.2157ZM93.3122 19.0157C94.7682 19.0157 95.7282 20.0077 95.7282 21.4957H90.7042C90.8962 19.9757 91.8562 19.0157 93.3122 19.0157ZM99.6549 15.5917C99.6549 14.8077 99.1749 14.3437 98.6309 14.3437C98.0709 14.3437 97.6869 14.7437 97.6869 15.2877C97.6869 15.8317 98.0549 16.1357 98.4709 16.1357C98.6629 16.1357 98.8069 16.1037 98.9029 16.0397C98.9029 16.4877 98.4869 16.8877 97.9269 16.9997V17.5917C98.9189 17.4477 99.6549 16.5997 99.6549 15.5917ZM105.833 18.1837C105.561 18.1197 105.353 18.1037 105.113 18.1037C104.025 18.1037 103.209 18.6477 102.905 19.4797L102.825 18.2797H101.785V26.0237H102.889V21.6077C102.889 20.1357 103.801 19.1757 105.225 19.1757H105.833V18.1837ZM110.252 26.2157C112.076 26.2157 113.276 25.3357 113.692 23.7037H112.636C112.348 24.7277 111.532 25.2717 110.268 25.2717C108.604 25.2717 107.612 24.1837 107.532 22.2957H113.692V21.7517C113.692 19.5597 112.268 18.0717 110.172 18.0717C107.964 18.0717 106.46 19.7357 106.46 22.1517C106.46 24.5837 107.98 26.2157 110.252 26.2157ZM110.172 19.0157C111.628 19.0157 112.588 20.0077 112.588 21.4957H107.564C107.756 19.9757 108.716 19.0157 110.172 19.0157ZM120.998 26.0077V21.7997C120.998 20.3117 121.862 19.0797 123.526 19.0797C124.726 19.0797 125.574 19.7197 125.574 21.5277V26.0237H126.678V21.2877C126.678 19.3357 125.766 18.0717 123.734 18.0717C122.438 18.0717 121.494 18.6957 120.998 19.6237V14.3597H119.894V26.0077H120.998ZM129.423 16.1517C129.871 16.1517 130.255 15.7837 130.255 15.3357C130.255 14.8877 129.871 14.5037 129.423 14.5037C128.975 14.5037 128.607 14.8877 128.607 15.3357C128.607 15.7837 128.975 16.1517 129.423 16.1517ZM128.879 26.0237H129.983V18.2797H128.879V26.0237ZM136.333 18.1837C136.061 18.1197 135.853 18.1037 135.613 18.1037C134.525 18.1037 133.709 18.6477 133.405 19.4797L133.325 18.2797H132.285V26.0237H133.389V21.6077C133.389 20.1357 134.301 19.1757 135.725 19.1757H136.333V18.1837ZM138.344 16.1517C138.792 16.1517 139.176 15.7837 139.176 15.3357C139.176 14.8877 138.792 14.5037 138.344 14.5037C137.896 14.5037 137.528 14.8877 137.528 15.3357C137.528 15.7837 137.896 16.1517 138.344 16.1517ZM137.8 26.0237H138.904V18.2797H137.8V26.0237ZM142.311 26.0237V21.9757C142.311 20.2317 143.207 19.0797 144.791 19.0797C146.071 19.0797 146.887 19.7197 146.887 21.5277V26.0237H147.991V21.2877C147.991 19.3357 147.111 18.0717 144.983 18.0717C143.863 18.0717 142.839 18.6317 142.327 19.6237L142.167 18.2797H141.207V26.0237H142.311ZM149.663 21.9277C149.663 24.0397 151.007 25.7837 153.215 25.7837C154.543 25.7837 155.615 25.1437 156.143 24.0557V25.8957C156.143 27.5117 155.087 28.5837 153.503 28.5837C152.111 28.5837 151.151 27.8477 150.911 26.5997H149.807C150.111 28.4717 151.503 29.5917 153.487 29.5917C155.759 29.5917 157.231 28.0877 157.231 25.7837V18.2797H156.271L156.159 19.8317C155.663 18.6957 154.639 18.0717 153.295 18.0717C151.023 18.0717 149.663 19.8157 149.663 21.9277ZM150.767 21.9117C150.767 20.3437 151.727 19.0477 153.391 19.0477C155.087 19.0477 156.047 20.2637 156.047 21.9117C156.047 23.5757 155.055 24.7917 153.375 24.7917C151.743 24.7917 150.767 23.4957 150.767 21.9117ZM165.076 26.0237V21.9757C165.076 20.2317 165.972 19.0797 167.556 19.0797C168.836 19.0797 169.652 19.7197 169.652 21.5277V26.0237H170.756V21.2877C170.756 19.3357 169.876 18.0717 167.748 18.0717C166.628 18.0717 165.604 18.6317 165.092 19.6237L164.932 18.2797H163.972V26.0237H165.076ZM172.413 22.1517C172.413 24.5037 174.077 26.2157 176.349 26.2157C178.621 26.2157 180.285 24.5037 180.285 22.1517C180.285 19.7837 178.621 18.0717 176.349 18.0717C174.077 18.0717 172.413 19.7837 172.413 22.1517ZM173.533 22.1357C173.533 20.3437 174.685 19.0637 176.349 19.0637C177.997 19.0637 179.165 20.3437 179.165 22.1357C179.165 23.9597 177.997 25.2237 176.349 25.2237C174.685 25.2237 173.533 23.9597 173.533 22.1357ZM183.339 26.0237H184.443L186.043 21.1597C186.251 20.5197 186.379 20.0557 186.491 19.6397C186.587 20.1037 186.715 20.5837 186.907 21.1597L188.507 26.0237H189.579L192.203 18.2797H191.051L189.515 22.9517C189.243 23.7837 189.211 23.9757 189.051 24.6157C188.907 24.0397 188.715 23.3677 188.571 22.9517L187.051 18.2797H185.915L184.379 22.9517C184.299 23.2077 184.043 23.9917 183.915 24.6157C183.755 23.9917 183.611 23.4637 183.435 22.9517L181.915 18.2797H180.779L183.339 26.0237ZM194.99 22.5837C195.118 21.4477 195.198 19.3517 195.198 17.2717V14.5677H193.998V17.2717C193.998 19.3357 194.062 21.4477 194.19 22.5837H194.99ZM194.606 26.2477C195.134 26.2477 195.598 25.7837 195.598 25.2397C195.598 24.6957 195.134 24.2477 194.606 24.2477C194.046 24.2477 193.598 24.6957 193.598 25.2397C193.598 25.7837 194.046 26.2477 194.606 26.2477Z" fill="white"/>
<line x1="65" y1="30.0237" x2="65" y2="8.99989" stroke="white" stroke-opacity="0.3"/>
</svg>
